<?xml version="1.0" encoding="UTF-8"?>
<svg width="800" height="645.6" version="1.1" viewBox="0 0 800 645.59761" xmlns="http://www.w3.org/2000/svg">
 <g transform="matrix(15.372 0 0 15.372 -1413.4 -1535.4)" clip-rule="evenodd" fill-rule="evenodd" image-rendering="optimizeQuality" shape-rendering="geometricPrecision" stroke="#000">
  <path class="fil21 str20" d="m92.422 105.32c0.2893 0.5787 0.9424 1.141 1.5823 0.5611 0.0602 2.0374-3.015 1.3572-1.5823-0.5611z" fill="#fcd116" stroke-width=".1852"/>
  <path class="fil21 str20" d="m92.776 104.34c0.2874 0.3585 1.2931 1.2117 1.8248 1.0689-1.077 1.8196-3.1872 0.1469-1.8248-1.0689z" fill="#fcd116" stroke-width=".1852"/>
  <path class="fil21 str20" d="m93.654 103.03c0.1349 0.3644 0.4482 2.0204 1.6791 1.9851-1.5689 1.5774-3.8206-0.6727-1.6791-1.9851z" fill="#fcd116" stroke-width=".1852"/>
  <path class="fil21 str20" d="m96.181 104.36c-2.1707 1.9407-4.1392-1.5233-1.2458-2.1987-0.4189 0.7702-0.1456 1.7589 1.2458 2.1987z" fill="#fcd116" stroke-width=".1852"/>
  <path class="fil21 str20" d="m97.36 103.98c-3.0532 1.2509-3.9647-2.8443-0.4628-2.7821-0.8695 0.7745-0.7577 2.1132 0.4628 2.7821z" fill="#fcd116" stroke-width=".1852"/>
  <path class="fil21 str20" d="m99.016 100.41c-1.2312 0.8136-1.2643 2.609 0.1809 3.5522-4.1223 0.9346-4.2961-3.8268-0.1809-3.5522z" fill="#fcd116" stroke-width=".1852"/>
  <path class="fil21 str20" d="m99.572 102.29c-0.1323 0.8192 0.1391 1.4011 0.9823 1.8473-4.986 0.0142-2.8392-5.4923 1.4976-3.8605-1.2763 0.3546-2.098 0.9335-2.4799 2.0132z" fill="#fcd116" stroke-width=".1852"/>
  <path class="fil21 str20" d="m101.44 102.8c-0.3118 0.6625-0.7804 1.1659-0.4246 1.8256-3.9042-0.9499-0.1626-6.5412 3.5559-3.4068-1.3423 0.1469-2.4966 0.5844-3.1313 1.5812z" fill="#fcd116" stroke-width=".1852"/>
  <path class="fil21 str20" d="m101.32 105.32c-2.9151-2.908 3.8535-6.0767 5.2843-2.485-2.0735-0.2716-4.3138 1.0373-5.2843 2.485z" fill="#fcd116" stroke-width=".1852"/>
  <path class="fil21 str20" d="m101.56 106.87c-2.1916-4.8255 7.5276-5.8839 6.879-1.2886-1.7068-0.0127-5.4176 0.8312-6.879 1.2886z" fill="#fcd116" stroke-width=".1852"/>
  <path class="fil21 str20" d="m106.32 108.18c-1.9161 0.1485-3.7167-0.0164-4.7473 1.329-2.099-5.474 8.9577-6.7785 8.0049-1.2097-1.3533-0.1108-1.7287-0.1443-3.2576-0.1193z" fill="#fcd116" stroke-width=".1852"/>
  <path class="fil21 str20" d="m101.3 112.3c-1.4943-6.762 10.774-6.7895 8.8432-1.1127-2.4894-2.3246-6.882-0.8684-8.8432 1.1127z" fill="#fcd116" stroke-width=".1852"/>
  <path class="fil21 str20" d="m101.46 115.72c-2.9001-6.6822 9.8623-8.4085 9.5055-2.5411-3.082-1.8846-7.6225 0.3227-9.5055 2.5411z" fill="#fcd116" stroke-width=".1852"/>
  <path class="fil21 str20" d="m101.79 119.15c-3.8046-5.3748 8.0454-10.392 10.066-4.3602-6.1455-0.1372-8.6765 1.8312-10.066 4.3602z" fill="#fcd116" stroke-width=".1852"/>
  <path class="fil21 str20" d="m102.86 123.39c-5.9305-4.9126 6.395-13.212 10.475-6.8086-5.1397-0.7482-9.7809 1.9857-10.475 6.8086z" fill="#fcd116" stroke-width=".1852"/>
  <path class="fil21 str20" d="m115.06 118.07c-6.3916-1.1146-10.152 6.1471-10.237 10.435-8.5888-6.4913 5.5762-16.386 10.237-10.435z" fill="#fcd116" stroke-width=".1852"/>
  <path class="fil21 str20" d="m117.4 118.99c-7.8199-0.3432-9.9357 8.2358-9.3501 13.181-10.528-4.0532 1.6441-19.042 9.3501-13.181z" fill="#fcd116" stroke-width=".1852"/>
  <path class="fil21 str20" d="m119.95 119.84c-8.3067 0.0533-9.1033 10.024-8.2428 15.442-11.19-1.6179-1.7086-21.633 8.2428-15.442z" fill="#fcd116" stroke-width=".1852"/>
  <path class="fil21 str20" d="m124.08 120.6c-8.9712 0.0724-8.4636 10.841-7.5477 16.758-11.173 1.2743-6.5575-24.637 7.5477-16.758z" fill="#fcd116" stroke-width=".1852"/>
  <path class="fil21 str20" d="m125.06 119.77c-5.4823 4.0431-5.6862 13.226-3.6755 19.635-11.569 0.6762-8.5096-24.944 3.6755-19.635z" fill="#fcd116" stroke-width=".1852"/>
  <path class="fil21 str20" d="m124.41 121.28c-2.4674-0.1166-4.7403 3.5256-5.0758 8.1325-0.3356 4.6072 1.3932 8.4383 3.8604 8.5548 2.4673 0.1165 4.7403-3.5258 5.0758-8.1331 0.3355-4.6068-1.3932-8.4379-3.8604-8.5542zm-6.7531 8.0362c0.3403-4.8085 2.4071-8.7979 4.9674-10.09 0.6248-0.3153 1.2791-0.47 1.9448-0.4369 3.3937 0.1697 5.8022 5.1593 5.3787 11.141-0.4234 5.9825-3.5188 10.697-6.9124 10.527-0.9582-0.0478-1.8379-0.4801-2.5975-1.2104-1.9303-1.8561-3.085-5.6381-2.781-9.9312z" fill="#fcd116" stroke-width=".1852"/>
  <path class="fil25 str20" d="m119.33 129.41c0.3355-4.6067 2.6086-8.249 5.0759-8.1324 2.4672 0.1165 4.1958 3.9474 3.8603 8.5543-0.3355 4.6074-2.6084 8.2495-5.0758 8.133-2.4671-0.1165-4.196-3.9474-3.8604-8.5549z" fill="#6d5600" stroke-width=".1852"/>
  <ellipse class="fil26 str21" cx="126" cy="129.21" rx="2.3236" ry=".77564" fill="#ffe680" stroke-width=".1831"/>
  <ellipse class="fil26 str21" cx="125.96" cy="128.81" rx="2.3236" ry=".77564" fill="#ffe680" stroke-width=".1831"/>
  <ellipse class="fil26 str21" cx="128.96" cy="129.74" rx="2.3236" ry=".77564" fill="#ffe680" stroke-width=".1831"/>
  <ellipse class="fil26 str21" cx="128.92" cy="129.34" rx="2.3236" ry=".77564" fill="#ffe680" stroke-width=".1831"/>
  <ellipse class="fil26 str21" cx="124.87" cy="130.69" rx="2.3236" ry=".77594" fill="#ffe680" stroke-width=".1831"/>
  <ellipse class="fil26 str21" cx="124.83" cy="130.29" rx="2.3236" ry=".77594" fill="#ffe680" stroke-width=".1831"/>
  <ellipse class="fil26 str21" cx="121.08" cy="130.75" rx="2.3236" ry=".77564" fill="#ffe680" stroke-width=".1831"/>
  <ellipse class="fil26 str21" cx="121.04" cy="130.35" rx="2.3236" ry=".77564" fill="#ffe680" stroke-width=".1831"/>
  <ellipse class="fil26 str21" cx="123.21" cy="132.41" rx="2.3236" ry=".77564" fill="#ffe680" stroke-width=".1831"/>
  <ellipse class="fil26 str21" cx="123.18" cy="132.01" rx="2.3236" ry=".77564" fill="#ffe680" stroke-width=".1831"/>
  <ellipse class="fil26 str21" cx="118.95" cy="132.59" rx="2.3236" ry=".77594" fill="#ffe680" stroke-width=".1831"/>
  <ellipse class="fil26 str21" cx="118.91" cy="132.19" rx="2.3236" ry=".77594" fill="#ffe680" stroke-width=".1831"/>
  <ellipse class="fil26 str21" cx="117.06" cy="134.13" rx="2.3236" ry=".77564" fill="#ffe680" stroke-width=".1831"/>
  <ellipse class="fil26 str21" cx="117.02" cy="133.73" rx="2.3236" ry=".77564" fill="#ffe680" stroke-width=".1831"/>
  <ellipse class="fil26 str21" cx="115.93" cy="135.56" rx="2.3236" ry=".77594" fill="#ffe680" stroke-width=".1831"/>
  <ellipse class="fil26 str21" cx="115.89" cy="135.16" rx="2.3236" ry=".77594" fill="#ffe680" stroke-width=".1831"/>
  <ellipse class="fil26 str21" cx="117.06" cy="136.98" rx="2.3236" ry=".77594" fill="#ffe680" stroke-width=".1831"/>
  <ellipse class="fil26 str21" cx="117.02" cy="136.58" rx="2.3236" ry=".77564" fill="#ffe680" stroke-width=".1831"/>
  <ellipse class="fil26 str21" cx="117.65" cy="138.4" rx="2.3239" ry=".77564" fill="#ffe680" stroke-width=".1831"/>
  <ellipse class="fil26 str21" cx="117.61" cy="138.01" rx="2.3239" ry=".77564" fill="#ffe680" stroke-width=".1831"/>
  <ellipse class="fil26 str21" cx="114.75" cy="139.35" rx="2.3236" ry=".77594" fill="#ffe680" stroke-width=".1831"/>
  <ellipse class="fil26 str21" cx="114.71" cy="138.96" rx="2.3236" ry=".77564" fill="#ffe680" stroke-width=".1831"/>
  <ellipse class="fil26 str21" cx="117.59" cy="140.36" rx="2.3239" ry=".77564" fill="#ffe680" stroke-width=".1831"/>
  <ellipse class="fil26 str21" cx="117.55" cy="139.96" rx="2.3239" ry=".77564" fill="#ffe680" stroke-width=".1831"/>
  <ellipse class="fil26 str21" cx="109.24" cy="140.18" rx="2.3236" ry=".77564" fill="#ffe680" stroke-width=".1831"/>
  <ellipse class="fil26 str21" cx="109.2" cy="139.79" rx="2.3236" ry=".77564" fill="#ffe680" stroke-width=".1831"/>
  <ellipse class="fil26 str21" cx="119.9" cy="141.02" rx="2.3236" ry=".77564" fill="#ffe680" stroke-width=".1831"/>
  <ellipse class="fil26 str21" cx="119.86" cy="140.62" rx="2.3236" ry=".77564" fill="#ffe680" stroke-width=".1831"/>
  <ellipse class="fil26 str21" cx="120.73" cy="139.35" rx="2.3239" ry=".77594" fill="#ffe680" stroke-width=".1831"/>
  <ellipse class="fil26 str21" cx="120.69" cy="138.96" rx="2.3239" ry=".77564" fill="#ffe680" stroke-width=".1831"/>
  <ellipse class="fil26 str21" cx="106.53" cy="137.93" rx="2.3236" ry=".77564" fill="#ffe680" stroke-width=".1831"/>
  <ellipse class="fil26 str21" cx="106.5" cy="137.53" rx="2.3236" ry=".77594" fill="#ffe680" stroke-width=".1831"/>
  <ellipse class="fil26 str21" cx="102.98" cy="139.77" rx="2.3236" ry=".77564" fill="#ffe680" stroke-width=".1831"/>
  <ellipse class="fil26 str21" cx="102.94" cy="139.37" rx="2.3236" ry=".77564" fill="#ffe680" stroke-width=".1831"/>
  <ellipse class="fil26 str21" cx="130.73" cy="139.3" rx="2.3236" ry=".77594" fill="#ffe680" stroke-width=".1831"/>
  <ellipse class="fil26 str21" cx="130.7" cy="138.9" rx="2.3236" ry=".77594" fill="#ffe680" stroke-width=".1831"/>
  <ellipse class="fil26 str21" cx="130.91" cy="135.44" rx="2.3236" ry=".77564" fill="#ffe680" stroke-width=".1831"/>
  <ellipse class="fil26 str21" cx="130.87" cy="135.04" rx="2.3236" ry=".77564" fill="#ffe680" stroke-width=".1831"/>
  <ellipse class="fil26 str21" cx="135.77" cy="136.86" rx="2.3236" ry=".77594" fill="#ffe680" stroke-width=".1831"/>
  <ellipse class="fil26 str21" cx="135.73" cy="136.46" rx="2.3236" ry=".77564" fill="#ffe680" stroke-width=".1831"/>
  <ellipse class="fil26 str21" cx="135.18" cy="139" rx="2.3236" ry=".77594" fill="#ffe680" stroke-width=".1831"/>
  <ellipse class="fil26 str21" cx="135.14" cy="138.6" rx="2.3236" ry=".77594" fill="#ffe680" stroke-width=".1831"/>
  <ellipse class="fil26 str21" cx="137.6" cy="140.42" rx="2.3236" ry=".77594" fill="#ffe680" stroke-width=".1831"/>
  <ellipse class="fil26 str21" cx="137.57" cy="140.02" rx="2.3236" ry=".77594" fill="#ffe680" stroke-width=".1831"/>
  <ellipse class="fil26 str21" cx="140.09" cy="139.53" rx="2.3236" ry=".77564" fill="#ffe680" stroke-width=".1831"/>
  <ellipse class="fil26 str21" cx="140.05" cy="139.13" rx="2.3236" ry=".77564" fill="#ffe680" stroke-width=".1831"/>
  <ellipse class="fil26 str21" cx="141.58" cy="138.4" rx="2.3236" ry=".77564" fill="#ffe680" stroke-width=".1831"/>
  <ellipse class="fil26 str21" cx="141.54" cy="138.01" rx="2.3236" ry=".77564" fill="#ffe680" stroke-width=".1831"/>
  <ellipse class="fil26 str21" cx="138.02" cy="137.52" rx="2.3236" ry=".77564" fill="#ffe680" stroke-width=".1831"/>
  <ellipse class="fil26 str21" cx="137.98" cy="137.12" rx="2.3236" ry=".77564" fill="#ffe680" stroke-width=".1831"/>
  <ellipse class="fil26 str21" cx="133.34" cy="137.22" rx="2.3236" ry=".77564" fill="#ffe680" stroke-width=".1831"/>
  <ellipse class="fil26 str21" cx="133.3" cy="136.82" rx="2.3236" ry=".77594" fill="#ffe680" stroke-width=".1831"/>
  <ellipse class="fil26 str21" cx="132.39" cy="133.96" rx="2.3236" ry=".77564" fill="#ffe680" stroke-width=".1831"/>
  <ellipse class="fil26 str21" cx="132.35" cy="133.56" rx="2.3236" ry=".77564" fill="#ffe680" stroke-width=".1831"/>
  <ellipse class="fil26 str21" cx="131.21" cy="132.59" rx="2.3236" ry=".77564" fill="#ffe680" stroke-width=".1831"/>
  <ellipse class="fil26 str21" cx="131.17" cy="132.19" rx="2.3236" ry=".77564" fill="#ffe680" stroke-width=".1831"/>
  <ellipse class="fil26 str21" cx="131.21" cy="130.99" rx="2.3236" ry=".77564" fill="#ffe680" stroke-width=".1831"/>
  <ellipse class="fil26 str21" cx="131.17" cy="130.59" rx="2.3236" ry=".77564" fill="#ffe680" stroke-width=".1831"/>
  <ellipse class="fil26 str21" cx="127.6" cy="131.4" rx="2.3236" ry=".77564" fill="#ffe680" stroke-width=".1831"/>
  <ellipse class="fil26 str21" cx="127.56" cy="131.01" rx="2.3236" ry=".77564" fill="#ffe680" stroke-width=".1831"/>
  <ellipse class="fil26 str21" cx="129.02" cy="133.24" rx="2.3236" ry=".77564" fill="#ffe680" stroke-width=".1831"/>
  <ellipse class="fil26 str21" cx="128.98" cy="132.85" rx="2.3236" ry=".77564" fill="#ffe680" stroke-width=".1831"/>
  <ellipse class="fil26 str21" cx="125.76" cy="133.24" rx="2.3236" ry=".77564" fill="#ffe680" stroke-width=".1831"/>
  <ellipse class="fil26 str21" cx="125.72" cy="132.85" rx="2.3236" ry=".77564" fill="#ffe680" stroke-width=".1831"/>
  <ellipse class="fil26 str21" cx="121.44" cy="134.02" rx="2.3236" ry=".77564" fill="#ffe680" stroke-width=".1831"/>
  <ellipse class="fil26 str21" cx="121.4" cy="133.62" rx="2.3236" ry=".77594" fill="#ffe680" stroke-width=".1831"/>
  <ellipse class="fil26 str21" cx="122.74" cy="135.68" rx="2.3236" ry=".77564" fill="#ffe680" stroke-width=".1831"/>
  <ellipse class="fil26 str21" cx="122.7" cy="135.28" rx="2.3236" ry=".77564" fill="#ffe680" stroke-width=".1831"/>
  <ellipse class="fil26 str21" cx="119.42" cy="135.44" rx="2.3236" ry=".77564" fill="#ffe680" stroke-width=".1831"/>
  <ellipse class="fil26 str21" cx="119.38" cy="135.04" rx="2.3236" ry=".77564" fill="#ffe680" stroke-width=".1831"/>
  <ellipse class="fil26 str21" cx="120.73" cy="137.34" rx="2.3239" ry=".77594" fill="#ffe680" stroke-width=".1831"/>
  <ellipse class="fil26 str21" cx="120.69" cy="136.94" rx="2.3239" ry=".77594" fill="#ffe680" stroke-width=".1831"/>
  <ellipse class="fil26 str21" cx="123.45" cy="138.29" rx="2.3236" ry=".77594" fill="#ffe680" stroke-width=".1831"/>
  <ellipse class="fil26 str21" cx="123.41" cy="137.89" rx="2.3236" ry=".77594" fill="#ffe680" stroke-width=".1831"/>
  <ellipse class="fil26 str21" cx="123.45" cy="141.02" rx="2.3236" ry=".77564" fill="#ffe680" stroke-width=".1831"/>
  <ellipse class="fil26 str21" cx="123.41" cy="140.62" rx="2.3236" ry=".77564" fill="#ffe680" stroke-width=".1831"/>
  <ellipse class="fil26 str21" cx="124.04" cy="139.47" rx="2.3236" ry=".77564" fill="#ffe680" stroke-width=".1831"/>
  <ellipse class="fil26 str21" cx="124" cy="139.07" rx="2.3236" ry=".77564" fill="#ffe680" stroke-width=".1831"/>
  <ellipse class="fil26 str21" cx="127.06" cy="140.01" rx="2.3236" ry=".77564" fill="#ffe680" stroke-width=".1831"/>
  <ellipse class="fil26 str21" cx="127.02" cy="139.61" rx="2.3236" ry=".77564" fill="#ffe680" stroke-width=".1831"/>
  <ellipse class="fil26 str21" cx="127.48" cy="138.4" rx="2.3236" ry=".77564" fill="#ffe680" stroke-width=".1831"/>
  <ellipse class="fil26 str21" cx="127.44" cy="138.01" rx="2.3236" ry=".77564" fill="#ffe680" stroke-width=".1831"/>
  <ellipse class="fil26 str21" cx="124.99" cy="136.86" rx="2.3236" ry=".77564" fill="#ffe680" stroke-width=".1831"/>
  <ellipse class="fil26 str21" cx="124.95" cy="136.46" rx="2.3236" ry=".77564" fill="#ffe680" stroke-width=".1831"/>
  <ellipse class="fil26 str21" cx="125.29" cy="134.55" rx="2.3236" ry=".77564" fill="#ffe680" stroke-width=".1831"/>
  <ellipse class="fil26 str21" cx="125.25" cy="134.15" rx="2.3236" ry=".77564" fill="#ffe680" stroke-width=".1831"/>
  <ellipse class="fil26 str21" cx="127.89" cy="135.74" rx="2.3236" ry=".77594" fill="#ffe680" stroke-width=".1831"/>
  <ellipse class="fil26 str21" cx="127.85" cy="135.34" rx="2.3236" ry=".77594" fill="#ffe680" stroke-width=".1831"/>
  <ellipse class="fil26 str21" cx="128.42" cy="134.43" rx="2.3236" ry=".77564" fill="#ffe680" stroke-width=".1831"/>
  <ellipse class="fil26 str21" cx="128.39" cy="134.03" rx="2.3236" ry=".77564" fill="#ffe680" stroke-width=".1831"/>
  <ellipse class="fil26 str22" transform="matrix(1.1041 .50595 -.50506 1.106 131.59 137.81)" rx="1.9139" ry=".6378" fill="#ffe680" stroke-width=".1524"/>
  <path class="fil26 str20" d="m133.84 138.39c-0.1778 0.39-1.268 0.2721-2.4355-0.2623-1.1668-0.535-1.969-1.2842-1.7909-1.6742 0.1782-0.3897 1.2684-0.2719 2.4359 0.2628 1.1666 0.5343 1.9686 1.284 1.7905 1.6737z" fill="#ffe680" stroke-width=".1852"/>
  <ellipse class="fil26 str21" cx="129.55" cy="137.1" rx="2.3236" ry=".77594" fill="#ffe680" stroke-width=".1831"/>
  <ellipse class="fil26 str21" cx="129.51" cy="136.7" rx="2.3236" ry=".77564" fill="#ffe680" stroke-width=".1831"/>
  <ellipse class="fil26 str21" cx="133.64" cy="135.44" rx="2.3236" ry=".77564" fill="#ffe680" stroke-width=".1831"/>
  <ellipse class="fil26 str21" cx="133.6" cy="135.04" rx="2.3236" ry=".77564" fill="#ffe680" stroke-width=".1831"/>
  <ellipse class="fil26 str21" cx="132.93" cy="140.66" rx="2.3236" ry=".77594" fill="#ffe680" stroke-width=".1831"/>
  <ellipse class="fil26 str21" cx="132.89" cy="140.26" rx="2.3236" ry=".77594" fill="#ffe680" stroke-width=".1831"/>
  <ellipse class="fil26 str21" cx="129.08" cy="140.78" rx="2.3236" ry=".77564" fill="#ffe680" stroke-width=".1831"/>
  <ellipse class="fil26 str21" cx="129.04" cy="140.38" rx="2.3236" ry=".77564" fill="#ffe680" stroke-width=".1831"/>
  <ellipse class="fil26 str22" transform="matrix(.9572 -.74823 .74691 .95888 112.91 138.36)" rx="1.9139" ry=".6378" fill="#ffe680" stroke-width=".1524"/>
  <path class="fil26 str20" d="m114.47 136.63c0.2631 0.338-0.3437 1.2527-1.3554 2.0438-1.0121 0.7908-2.0454 1.1581-2.3088 0.8202-0.2629-0.3377 0.3436-1.2528 1.3554-2.0439 1.0118-0.7907 2.0456-1.1581 2.3088-0.8201z" fill="#ffe680" stroke-width=".1852"/>
  <ellipse class="fil26 str22" transform="matrix(.95707 -.74835 .74703 .95876 111.14 138.23)" rx="1.9139" ry=".6378" fill="#ffe680" stroke-width=".1524"/>
  <path class="fil26 str20" d="m112.69 136.51c0.2631 0.3376-0.3436 1.2528-1.3553 2.0439-1.0122 0.7903-2.0454 1.158-2.3089 0.8204-0.2631-0.3379 0.3436-1.2532 1.3554-2.0439s2.0454-1.1587 2.3088-0.8204z" fill="#ffe680" stroke-width=".1852"/>
  <ellipse class="fil26 str22" transform="matrix(.56893 -1.0744 1.0725 .56993 117.87 135.97)" rx="1.9142" ry=".6378" fill="#ffe680" stroke-width=".1524"/>
  <path class="fil26 str20" d="m118.59 133.76c0.3781 0.2009 0.1967 1.2843-0.4047 2.42-0.6017 1.1355-1.3955 1.8936-1.7735 1.693-0.3778-0.201-0.1967-1.2847 0.4047-2.4205 0.6016-1.1357 1.3955-1.8937 1.7735-1.6925z" fill="#ffe680" stroke-width=".1852"/>
  <ellipse class="fil26 str22" transform="matrix(.56893 -1.0744 1.0725 .56993 114.38 133.36)" rx="1.9139" ry=".6378" fill="#ffe680" stroke-width=".1524"/>
  <path class="fil26 str20" d="m115.1 131.15c0.3784 0.2009 0.1967 1.2843-0.4047 2.4201-0.6016 1.1357-1.3955 1.8938-1.7733 1.6931-0.3777-0.2008-0.1965-1.2846 0.4049-2.4206 0.6012-1.1354 1.3952-1.8935 1.7731-1.6926z" fill="#ffe680" stroke-width=".1852"/>
  <ellipse class="fil26 str22" transform="matrix(1.2115 .079055 -.078916 1.2137 113.79 136.15)" rx="1.9139" ry=".6378" fill="#ffe680" stroke-width=".1524"/>
  <path class="fil26 str20" d="m116.09 135.9c-0.0281 0.4279-1.089 0.7062-2.3692 0.6227-1.2808-0.0833-2.2966-0.4977-2.2689-0.9253 0.0281-0.4278 1.0889-0.7064 2.3692-0.6233 1.2808 0.0833 2.2968 0.4979 2.2689 0.9259z" fill="#ffe680" stroke-width=".1852"/>
  <ellipse class="fil26 str22" transform="matrix(.98476 .71135 -.7101 .98649 136.39 134.82)" rx="1.9139" ry=".6378" fill="#ffe680" stroke-width=".1524"/>
  <path class="fil26 str20" d="m138.48 135.84c-0.2505 0.348-1.297 0.0197-2.338-0.7322-1.0409-0.7522-1.682-1.6435-1.4321-1.991 0.2504-0.3474 1.2972-0.0197 2.3384 0.7323 1.0407 0.7519 1.682 1.6432 1.4317 1.9909z" fill="#ffe680" stroke-width=".1852"/>
  <ellipse class="fil26 str22" transform="matrix(.98476 .71135 -.7101 .98649 139.64 136.08)" rx="1.9139" ry=".6378" fill="#ffe680" stroke-width=".1524"/>
  <path class="fil26 str20" d="m141.73 137.1c-0.2504 0.348-1.2969 0.0197-2.3381-0.7322-1.0408-0.7522-1.6819-1.6435-1.432-1.991 0.2503-0.3474 1.2972-0.0197 2.3383 0.7323 1.0409 0.7519 1.682 1.6432 1.4318 1.9909z" fill="#ffe680" stroke-width=".1852"/>
  <ellipse class="fil26 str21" cx="134.63" cy="132.86" rx="2.3236" ry=".77564" fill="#ffe680" stroke-width=".1831"/>
  <ellipse class="fil26 str21" cx="134.59" cy="132.46" rx="2.3236" ry=".77564" fill="#ffe680" stroke-width=".1831"/>
 </g>
</svg>
