<svg xmlns="http://www.w3.org/2000/svg" width="210.343" height="49.938" viewBox="0 0 210.343 49.938">
  <g id="Group_8" data-name="Group 8" transform="translate(-862.828 -447.415)">
    <path id="Path_11" data-name="Path 11" d="M871.845,530.508h-109.5v2h109.5a20.327,20.327,0,1,1,0,40.653H706.155a20.327,20.327,0,1,1,0-40.653h6.192v-2h-6.192a22.327,22.327,0,1,0,0,44.653h165.69a22.327,22.327,0,1,0,0-44.653Z" transform="translate(179 -77.808)" fill="#e6e6e6"/>
    <path id="Path_40" data-name="Path 40" d="M724.706,525.224a5.946,5.946,0,1,0,0,11.893h26.086a5.947,5.947,0,1,0,.2-11.892q-.1,0-.2,0Z" transform="translate(179 -77.808)" fill="#3f3d56"/>
    <path id="Path_40-2" data-name="Path 40" d="M714.359,546.889a5.946,5.946,0,1,0,0,11.893H863.445a5.947,5.947,0,1,0,.2-11.892q-.1,0-.2,0Z" transform="translate(179 -77.808)" fill="#e6e6e6"/>
  </g>
</svg>
