<svg xmlns="http://www.w3.org/2000/svg" width="218.404" height="158.438" viewBox="0 0 218.404 158.438">
  <g id="Group_12" data-name="Group 12" transform="translate(-1142.235 -336.262)">
    <ellipse id="Ellipse_13" data-name="Ellipse 13" cx="10.636" cy="3.989" rx="10.636" ry="3.989" transform="translate(1270.182 470.71) rotate(-30.266)" fill="#2f2e41"/>
    <ellipse id="Ellipse_14" data-name="Ellipse 14" cx="10.636" cy="3.989" rx="10.636" ry="3.989" transform="translate(1293.182 470.71) rotate(-30.266)" fill="#2f2e41"/>
    <g id="Group_6" data-name="Group 6" transform="translate(181 184)">
      <path id="Path_8" data-name="Path 8" d="M993.606,235.808h-124a5,5,0,0,0-5,5v124a5,5,0,0,0,5,5h124a5,5,0,0,0,5-5v-124A5,5,0,0,0,993.606,235.808Zm3,129a3.009,3.009,0,0,1-3,3h-124a3.009,3.009,0,0,1-3-3v-124a3.009,3.009,0,0,1,3-3h124a3.009,3.009,0,0,1,3,3Z" transform="translate(179 -77.808)" fill="#3f3d56"/>
      <ellipse id="Ellipse_10" data-name="Ellipse 10" cx="21.006" cy="6.594" rx="21.006" ry="6.594" transform="translate(1135.663 231.294) rotate(-14.482)" fill="#2f2e41"/>
      <ellipse id="Ellipse_11" data-name="Ellipse 11" cx="21.006" cy="6.594" rx="21.006" ry="6.594" transform="matrix(0.384, -0.923, 0.923, 0.384, 1055.499, 253.292)" fill="#2f2e41"/>
      <circle id="Ellipse_12" data-name="Ellipse 12" cx="42.012" cy="42.012" r="42.012" transform="translate(1073.52 184.479)" fill="#2f2e41"/>
      <path id="Path_19" data-name="Path 19" d="M930.41,360.167l-12.763.059c-9.343-9.2-7.96-16.58-.106-22.867L930.3,337.3C924.419,344.545,922.851,352.065,930.41,360.167Z" transform="translate(179 -77.808)" fill="#2f2e41"/>
      <path id="Path_20" data-name="Path 20" d="M953.41,360.167l-12.763.059c-9.343-9.2-7.96-16.58-.106-22.867L953.3,337.3C947.419,344.545,945.851,352.065,953.41,360.167Z" transform="translate(179 -77.808)" fill="#2f2e41"/>
      <circle id="Ellipse_15" data-name="Ellipse 15" cx="14.359" cy="14.359" r="14.359" transform="translate(1100.06 201.501)" fill="#fff"/>
      <circle id="Ellipse_16" data-name="Ellipse 16" cx="4.786" cy="4.786" r="4.786" transform="translate(1109.714 217.98)" fill="#3f3d56"/>
      <path id="Path_21" data-name="Path 21" d="M977.1,265.04c3.322-15.208-7.593-30.508-24.38-34.175s-33.087,5.69-36.408,20.9,7.818,20.759,24.6,24.426S973.781,280.248,977.1,265.04Z" transform="translate(179 -77.808)" fill="#6c63ff"/>
      <path id="Path_22" data-name="Path 22" d="M945.022,322.607a9.572,9.572,0,1,1-19.145.108V322.7c-.025-5.287,4.256-6.4,9.543-6.426S945,317.32,945.022,322.607Z" transform="translate(179 -77.808)" fill="#fff"/>
      <path id="Path_25" data-name="Path 25" d="M785.789,386.636c-2.3-10.065,2.942-21.1,11.776-26.251,4.057-2.364,9.15-3.6,13.593-1.489a5.5,5.5,0,0,1,3.415,4.019,4.581,4.581,0,0,1-2.856,4.626,6.265,6.265,0,0,1-5.826-.006,7.334,7.334,0,0,1-3.223-5.817c-.432-5.743,3.97-9.946,9.049-11.742,6.507-2.3,13.521-1.225,20.258-1.069a89.867,89.867,0,0,0,19.241-1.671,91.536,91.536,0,0,0,38.65-17.644c1.521-1.185-.615-3.295-2.121-2.121a88.5,88.5,0,0,1-38.982,17.179,98.916,98.916,0,0,1-22.043,1.035c-7.033-.341-14.663-.351-20.7,3.835-4.911,3.407-7.831,9.564-5.709,15.453a9.366,9.366,0,0,0,5.438,5.787,9.6,9.6,0,0,0,7.352-.567,7.41,7.41,0,0,0,2.063-12.185c-3.888-3.622-10.143-3.868-14.92-2.157-11,3.939-18.658,15.652-17.97,27.313a26.01,26.01,0,0,0,.618,4.268c.431,1.881,3.324,1.085,2.893-.8Z" transform="translate(179 -77.808)" fill="#3f3d56"/>
    </g>
  </g>
</svg>
