<svg xmlns="http://www.w3.org/2000/svg" width="980.002" height="472" viewBox="0 0 980.002 472">
  <g id="Group_3" data-name="Group 3" transform="translate(-289 -75)">
    <path id="Path_4" data-name="Path 4" d="M1020.11,152.808h-885a7.5,7.5,0,0,0-7.5,7.5v457a7.5,7.5,0,0,0,7.5,7.5h885a7.53,7.53,0,0,0,6.03-3.06,6.568,6.568,0,0,0,.95-1.72,7.234,7.234,0,0,0,.52-2.72v-457a7.5,7.5,0,0,0-7.5-7.5Zm4.5,464.5a4.507,4.507,0,0,1-4.5,4.5h-885a4.507,4.507,0,0,1-4.5-4.5v-457a4.507,4.507,0,0,1,4.5-4.5h885a4.507,4.507,0,0,1,4.5,4.5Z" transform="translate(179 -77.808)" fill="#e6e6e6"/>
    <path id="Path_40" data-name="Path 40" d="M317.164,298.378a3.625,3.625,0,1,0,0,7.25H488.042a3.625,3.625,0,0,0,.119-7.249h-171Z" transform="translate(179 -77.808)" fill="#e6e6e6"/>
    <path id="Path_40-2" data-name="Path 40" d="M317.164,265.378a3.625,3.625,0,1,0,0,7.249h48.878a3.625,3.625,0,1,0,.119-7.249h-49Z" transform="translate(179 -77.808)" fill="#e6e6e6"/>
    <path id="Path_40-3" data-name="Path 40" d="M317.164,332.378a3.625,3.625,0,1,0,0,7.249H488.042a3.625,3.625,0,0,0,.119-7.249h-171Z" transform="translate(179 -77.808)" fill="#e6e6e6"/>
    <path id="Path_40-4" data-name="Path 40" d="M835.049,298.378a3.625,3.625,0,1,1,0,7.25H664.171a3.625,3.625,0,1,1-.119-7.249h171Z" transform="translate(179 -77.808)" fill="#e6e6e6"/>
    <path id="Path_40-5" data-name="Path 40" d="M835.049,265.378a3.625,3.625,0,1,1,0,7.249H786.171a3.625,3.625,0,1,1-.119-7.249h49Z" transform="translate(179 -77.808)" fill="#e6e6e6"/>
    <path id="Path_40-6" data-name="Path 40" d="M835.049,332.378a3.625,3.625,0,1,1,0,7.249H664.171a3.625,3.625,0,1,1-.119-7.249h171Z" transform="translate(179 -77.808)" fill="#e6e6e6"/>
    <path id="Path_78" data-name="Path 78" d="M546.432,472.34H311.594c-4.578,0-8.288-2.643-8.293-5.9V415.4c.005-3.257,3.715-5.9,8.293-5.9H546.432c4.578,0,8.288,2.643,8.293,5.9v51.041C554.721,469.7,551.01,472.336,546.432,472.34Z" transform="translate(179 -77.808)" fill="#e6e6e6"/>
    <rect id="Rectangle_8" data-name="Rectangle 8" width="897" height="2" transform="translate(309.606 113.33)" fill="#e6e6e6"/>
    <circle id="Ellipse_4" data-name="Ellipse 4" cx="9" cy="9" r="9" transform="translate(322.606 88)" fill="#e6e6e6"/>
    <circle id="Ellipse_5" data-name="Ellipse 5" cx="9" cy="9" r="9" transform="translate(351.606 88)" fill="#e6e6e6"/>
    <circle id="Ellipse_6" data-name="Ellipse 6" cx="9" cy="9" r="9" transform="translate(380.606 88)" fill="#e6e6e6"/>
    <path id="Path_15" data-name="Path 15" d="M1060.49,556.2a239.373,239.373,0,0,1-11.18,66.13c-.15.49-.32.98-.48,1.48h-41.7c.04-.44.09-.94.13-1.48.01-.17.03-.34.04-.52h12.81a4.507,4.507,0,0,0,4.5-4.5V396.368c.98,2.14,1.99,4.36,3,6.67C1043.5,439.138,1062.42,495.5,1060.49,556.2Z" transform="translate(179 -77.808)" fill="#e6e6e6"/>
    <path id="Path_16" data-name="Path 16" d="M1057.35,622.325c-.349.5-.712.994-1.083,1.483H1024.99c.237-.423.512-.919.831-1.483,5.168-9.328,20.466-37.217,34.667-66.13,15.261-31.07,29.261-63.319,28.082-74.991C1088.93,483.836,1099.49,564.085,1057.35,622.325Z" transform="translate(179 -77.808)" fill="#e6e6e6"/>
    <path id="Path_17" data-name="Path 17" d="M124.982,590.488a121.427,121.427,0,0,0,5.672,33.567c.079.252.162.5.245.753h21.168c-.023-.226-.045-.478-.068-.753-1.411-16.226-9.549-114.984.181-131.872C151.33,493.553,123.341,538.93,124.982,590.488Z" transform="translate(179 -77.808)" fill="#e6e6e6"/>
    <path id="Path_18" data-name="Path 18" d="M126.571,624.055c.177.252.361.5.55.753H143c-.12-.215-.26-.467-.422-.753-2.623-4.735-10.388-18.891-17.6-33.567-7.746-15.771-14.852-32.14-14.254-38.064C110.544,553.76,105.184,594.493,126.571,624.055Z" transform="translate(179 -77.808)" fill="#e6e6e6"/>
  </g>
</svg>
