<svg xmlns="http://www.w3.org/2000/svg" width="251.424" height="62.842" viewBox="0 0 251.424 62.842">
  <g id="Group_4" data-name="Group 4" transform="translate(-447.459 -299.808)">
    <path id="Path_78" data-name="Path 78" d="M511.59,440.458H276.752c-4.578,0-8.288-2.643-8.293-5.9V383.516c.005-3.257,3.715-5.9,8.293-5.9H511.59c4.578,0,8.288,2.643,8.293,5.9v51.041C519.879,437.814,516.168,440.454,511.59,440.458ZM276.752,379.974c-2.747,0-4.973,1.586-4.976,3.54v51.041c0,1.954,2.229,3.538,4.976,3.54H511.59c2.747,0,4.973-1.586,4.976-3.54V383.516c0-1.954-2.229-3.538-4.976-3.54Z" transform="translate(179 -77.808)" fill="#3f3d56"/>
    <circle id="Ellipse_9" data-name="Ellipse 9" cx="19" cy="19" r="19" transform="translate(471.124 311.82)" fill="#6c63ff"/>
    <path id="Path_40" data-name="Path 40" d="M352.164,395a3.625,3.625,0,1,0,0,7.249H488.042a3.625,3.625,0,0,0,.119-7.249h-136Z" transform="translate(179 -77.808)" fill="#3f3d56"/>
    <path id="Path_40-2" data-name="Path 40" d="M352.164,415a3.625,3.625,0,1,0,0,7.249H488.042a3.625,3.625,0,0,0,.119-7.249h-136Z" transform="translate(179 -77.808)" fill="#3f3d56"/>
  </g>
</svg>
