<svg xmlns="http://www.w3.org/2000/svg" xmlns:xlink="http://www.w3.org/1999/xlink" width="622.873" height="622.871" viewBox="0 0 622.873 622.871">
  <defs>
    <clipPath id="clip-path">
      <circle id="Ellipse_31" data-name="Ellipse 31" cx="15.575" cy="15.575" r="15.575" transform="translate(0 30.31) rotate(-76.654)" fill="none"/>
    </clipPath>
    <clipPath id="clip-path-2">
      <circle id="Ellipse_33" data-name="Ellipse 33" cx="23.702" cy="23.702" r="23.702" fill="none"/>
    </clipPath>
    <clipPath id="clip-path-3">
      <circle id="Ellipse_35" data-name="Ellipse 35" cx="17.607" cy="17.607" r="17.607" transform="translate(0 34.756) rotate(-80.747)" fill="none"/>
    </clipPath>
    <clipPath id="clip-path-4">
      <circle id="Ellipse_37" data-name="Ellipse 37" cx="11.512" cy="11.512" r="11.512" fill="none"/>
    </clipPath>
    <clipPath id="clip-path-5">
      <path id="Path_51" data-name="Path 51" d="M395.52,307.063c-11.655-28.47-24.917-33.8-24.917-33.8s.414-.557,1.083-1.553A29.1,29.1,0,0,1,384.7,283.254a.356.356,0,0,0,.616-.358,29.89,29.89,0,0,0-13.23-11.8c.285-.434.6-.928.941-1.474a49.149,49.149,0,0,1,11.843,4.247c.41.2.771-.413.36-.616a50.408,50.408,0,0,0-11.808-4.272c7.215-11.859,22.718-44.528-22.679-48.267,2.823-3.084,6.757-5.025,10.654-6.412.429-.152.245-.841-.188-.686-3.9,1.388-7.777,3.276-10.677,6.288a36.575,36.575,0,0,1,1.861-5.854c.171-.426-.518-.61-.686-.19a35.788,35.788,0,0,0-1.982,6.418c-.708-.666-2.326-2.139-4.64-3.98a36.878,36.878,0,0,0-4.144-5.1c-7.738-7.978-18.6-10.649-29.442-9.6a.362.362,0,0,0-.319.263,28.941,28.941,0,0,0-19.315,6.982c-7.6,6.35-8.683,16.086-6.744,25.447.116,1.486.385,2.927.541,3.883,1.139,7.01,4.2,13.595,7.935,19.624-4.641.784-13.017,3.583-11.273,13.55,2.385,13.644,13.611,30.842.308,32.631s-19.709,32.253,27.392,60.7,91.89,1.512,73.309-21.019C383.335,343.66,407.176,335.533,395.52,307.063ZM286.867,240.554a50.67,50.67,0,0,0,9.65,16.945,19.674,19.674,0,0,0-2.15.187A57.236,57.236,0,0,1,286.867,240.554Zm53.849-28.563c.821.867,1.621,1.8,2.38,2.776-6.56-4.92-16.985-11.33-28.123-12.654C324.583,201.9,333.906,204.8,340.715,211.991Z" transform="translate(-272.961 -201.386)" fill="#4375f1"/>
    </clipPath>
    <clipPath id="clip-path-6">
      <path id="Path_54" data-name="Path 54" d="M323.288,271.879l-4.272-7.594s-12.391,1.225-16.894,6.478-33.065,57.514-33.065,57.514-12.371,5.874-22.554,10.882c2.539,1.584,5.454,4.485,7.115,10.121,8.936-3.229,20.63-8.155,24.854-11.184,0,0,27.577-21.111,30.578-35.371S323.288,271.879,323.288,271.879Z" transform="translate(-246.503 -264.285)" fill="#e2b187"/>
    </clipPath>
    <clipPath id="clip-path-7">
      <path id="Path_58" data-name="Path 58" d="M309.158,257.729s2.252,8.254-7.505,18.012L296.4,285.5l11.258,12.759,11.258,3.753,24.015-27.769-10.507-6.754-3-30.771Z" transform="translate(-296.4 -236.714)" fill="#edba8f"/>
    </clipPath>
    <clipPath id="clip-path-8">
      <path id="Path_61" data-name="Path 61" d="M312.59,261.85s4.457,12.768,26.973-3.742c0,0,14.032,7.486,17.875,9.834,8.542,5.221,10.357,4.348,12.608,12.6L350.07,346.667l6.754,26.268-72.075.121,6.4-29.2a23.894,23.894,0,0,0-7.406-19.44c-10.3-9.963,3.515-26.452,14.377-56.472C299.014,265.461,312.59,261.85,312.59,261.85Z" transform="translate(-280.112 -258.108)" fill="#dc466f"/>
    </clipPath>
    <clipPath id="clip-path-9">
      <path id="Path_67" data-name="Path 67" d="M313.739,211.823s-20.881,15.662-18.131,39.755c1.257,11.01,3.745,14.455,8.165,17.668,5.22,3.8,22.617,1.433,27.159-7.331l2.4-7.111s4.257,3.813,8.551-1.867,3.377-14.7-2.809-10.454l3.84-11.377-3.761-9.982Z" transform="translate(-295.358 -211.823)" fill="#edba8f"/>
    </clipPath>
    <clipPath id="clip-path-10">
      <path id="Path_80" data-name="Path 80" d="M156.923,263.948l2.783,81.283a9.361,9.361,0,0,0,9.356,9.041H285.953a9.361,9.361,0,0,0,9.355-9.681l-2.783-81.284a9.361,9.361,0,0,0-9.356-9.04H166.277A9.361,9.361,0,0,0,156.923,263.948Z" transform="translate(-156.917 -254.267)" fill="#838bc0"/>
    </clipPath>
    <clipPath id="clip-path-11">
      <circle id="Ellipse_43" data-name="Ellipse 43" cx="98.754" cy="98.754" r="98.754" transform="translate(0 197.415) rotate(-88.237)" fill="#819fde"/>
    </clipPath>
    <clipPath id="clip-path-12">
      <path id="Path_86" data-name="Path 86" d="M130.943,157.484l-.967,22.866,21.14,14.019a1.379,1.379,0,0,0,2.106-.9l3.485-18.592L136.1,149.753Z" transform="translate(-129.976 -149.753)" fill="#e7b59d"/>
    </clipPath>
    <clipPath id="clip-path-13">
      <path id="Path_100" data-name="Path 100" d="M295.575,96.471H472.243a5.588,5.588,0,0,1,5.589,5.588V146.63a5.59,5.59,0,0,1-2.46,4.63L447.119,170.35a1.88,1.88,0,0,1-2.852-2.1l5.65-18.648H295.575a5.588,5.588,0,0,1-5.588-5.588V102.059A5.588,5.588,0,0,1,295.575,96.471Z" transform="translate(-289.987 -96.471)" fill="#9f71ac"/>
    </clipPath>
    <clipPath id="clip-path-14">
      <path id="Path_107" data-name="Path 107" d="M439.143,139.74H246.931a6.079,6.079,0,0,0-6.08,6.08v48.492a6.079,6.079,0,0,0,2.675,5.037l30.739,20.771a2.046,2.046,0,0,0,3.1-2.29l-6.147-20.289H439.143a6.079,6.079,0,0,0,6.08-6.08V145.82A6.079,6.079,0,0,0,439.143,139.74Z" transform="translate(-240.851 -139.74)" fill="#e6b851"/>
    </clipPath>
    <clipPath id="clip-path-15">
      <circle id="Ellipse_45" data-name="Ellipse 45" cx="81.941" cy="81.941" r="81.941" transform="translate(0 115.882) rotate(-45)" fill="none"/>
    </clipPath>
    <clipPath id="clip-path-16">
      <path id="Path_112" data-name="Path 112" d="M391.331,386.307c-6.218,14.267-17.192,25.971-25.606,14.632-6.271-8.453-1.364-19.956,1.542-25.267a110.665,110.665,0,0,1,17.691-4H393.3s4.945,0,11.12.394A29.853,29.853,0,0,0,391.331,386.307Z" transform="translate(-362.683 -371.674)" fill="#e7b59d"/>
    </clipPath>
    <clipPath id="clip-path-17">
      <path id="Path_117" data-name="Path 117" d="M393.934,330.779s-5.852-8.413-20.119-1.828-32.191,38.775-9.877,67.308c0,0,4.755-6.951,21.949-8.779S393.934,330.779,393.934,330.779Z" transform="translate(-353.407 -326.434)" fill="#a072ae"/>
    </clipPath>
    <clipPath id="clip-path-18">
      <path id="Path_120" data-name="Path 120" d="M392.434,359.146l.895,21.16-19.564,12.975a1.278,1.278,0,0,1-1.949-.837l-3.225-17.2,19.073-23.247Z" transform="translate(-368.591 -351.993)" fill="#e7b59d"/>
    </clipPath>
    <clipPath id="clip-path-19">
      <path id="Path_123" data-name="Path 123" d="M357.448,364.826c.459-6.441,4.137-18.616,4.155-18.213.164-.785,1.946-8.961,5.35-10.662,3.577-1.788,18.478,2.98,18.478,4.769,0,1.421.758,11.495,5.855,15.872a8.089,8.089,0,0,0,4.874,2.009,10.29,10.29,0,0,1,7.761,4.394,102.786,102.786,0,0,1-10.741.375c-4.64,26.33-21.911,23.393-26.954,22.672C361.105,385.31,356.711,375.145,357.448,364.826Z" transform="translate(-357.367 -335.556)" fill="#e7b59d"/>
    </clipPath>
  </defs>
  <g id="Group_162" data-name="Group 162" transform="translate(-36.94 -25.028)">
    <g id="Group_112" data-name="Group 112" transform="translate(36.94 25.028)">
      <g id="Group_81" data-name="Group 81" transform="translate(90.534 90.533)">
        <path id="Path_26" data-name="Path 26" d="M320.787,529.778a220.9,220.9,0,1,1,156.2-64.7A219.458,219.458,0,0,1,320.787,529.778Zm0-441.189A220.286,220.286,0,1,0,476.553,153.11,218.838,218.838,0,0,0,320.787,88.589Z" transform="translate(-99.885 -87.972)" fill="#becbfc"/>
      </g>
      <g id="Group_82" data-name="Group 82" transform="translate(64.236 64.235)">
        <path id="Path_27" data-name="Path 27" d="M328.8,564.09a246.413,246.413,0,1,1,96.223-19.426A245.655,245.655,0,0,1,328.8,564.09Zm0-493.711a245.743,245.743,0,1,0,95.954,19.373A244.971,244.971,0,0,0,328.8,70.378Z" transform="translate(-81.601 -69.688)" fill="#becbfc"/>
      </g>
      <g id="Group_83" data-name="Group 83" transform="translate(136.776 136.774)">
        <path id="Path_28" data-name="Path 28" d="M306.7,469.443a174.121,174.121,0,1,1,67.986-13.726A173.576,173.576,0,0,1,306.7,469.443Zm0-348.832a173.619,173.619,0,1,0,67.8,13.687A173.087,173.087,0,0,0,306.7,120.611Z" transform="translate(-132.035 -120.122)" fill="#becbfc"/>
      </g>
      <g id="Group_84" data-name="Group 84" transform="translate(33.162 33.16)" opacity="0.38">
        <path id="Path_29" data-name="Path 29" d="M338.271,604.632A278.348,278.348,0,0,1,229.953,69.952,278.346,278.346,0,0,1,446.588,582.764,276.529,276.529,0,0,1,338.271,604.632Zm0-555.77A277.569,277.569,0,0,0,230.257,582.047,277.568,277.568,0,0,0,446.285,70.669,275.765,275.765,0,0,0,338.271,48.863Z" transform="translate(-59.996 -48.083)" fill="#becbfc"/>
      </g>
      <g id="Group_85" data-name="Group 85" opacity="0.18">
        <path id="Path_30" data-name="Path 30" d="M348.376,647.9A311.518,311.518,0,0,1,227.152,49.5,311.516,311.516,0,0,1,469.6,623.425,309.5,309.5,0,0,1,348.376,647.9Zm0-622A310.647,310.647,0,0,0,227.491,622.622,310.646,310.646,0,0,0,469.263,50.3,308.636,308.636,0,0,0,348.376,25.9Z" transform="translate(-36.94 -25.028)" fill="#becbfc"/>
      </g>
      <g id="Group_86" data-name="Group 86" transform="translate(23.903 23.902)">
        <path id="Path_31" data-name="Path 31" d="M341.092,616.714A287.609,287.609,0,0,1,229.172,64.242,287.608,287.608,0,0,1,453.014,594.116,285.721,285.721,0,0,1,341.092,616.714Zm0-574.264A286.8,286.8,0,0,0,229.484,593.376,286.8,286.8,0,0,0,452.7,64.983,284.937,284.937,0,0,0,341.092,42.45Z" transform="translate(-53.559 -41.646)" fill="#becbfc"/>
      </g>
      <g id="Group_92" data-name="Group 92" transform="translate(274.402 71.919)">
        <g id="Group_91" data-name="Group 91" clip-path="url(#clip-path)">
          <g id="Group_87" data-name="Group 87" transform="translate(-6.491 -6.491)" opacity="0.8">
            <circle id="Ellipse_30" data-name="Ellipse 30" cx="21.045" cy="21.045" r="21.045" transform="matrix(0.225, -0.974, 0.974, 0.225, 0, 41.012)" fill="#becbfc"/>
          </g>
          <g id="Group_90" data-name="Group 90" transform="translate(6.324 6.976)">
            <g id="Group_88" data-name="Group 88" transform="translate(12.241 32.616)">
              <path id="Path_32" data-name="Path 32" d="M240.815,102.575l-.093-.017-.092.017Z" transform="translate(-240.629 -102.558)" fill="#4375fa"/>
            </g>
            <g id="Group_89" data-name="Group 89">
              <path id="Path_33" data-name="Path 33" d="M256.782,106.211c-.186-3.987-2.595-6.583-4.265-6.4a33.3,33.3,0,0,1-5.562-.371,4.579,4.579,0,0,1-.247-2.245c1.8-1.166,3.144-3.754,3.463-6.879a1.688,1.688,0,0,0,1.034-1.234c.247-.818.063-1.6-.413-1.742a.654.654,0,0,0-.539.1c.026-4.285-.118-7.558-5.7-7.558-5.279,0-5.67,3.229-5.694,7.471a.646.646,0,0,0-.486-.165c-.492.059-.81.8-.708,1.645s.585,1.489,1.079,1.43a.547.547,0,0,0,.177-.053c.288,3.052,1.546,5.6,3.264,6.845a4.738,4.738,0,0,1-.232,2.389,33.308,33.308,0,0,1-5.563.371c-1.668-.186-4.079,2.411-4.265,6.4-.175,3.787,11.193,6.068,12.331,6.287C245.589,112.279,256.959,110,256.782,106.211Z" transform="translate(-232.119 -79.881)" fill="#819fde"/>
            </g>
          </g>
        </g>
      </g>
      <g id="Group_98" data-name="Group 98" transform="translate(148.909 492.924)">
        <g id="Group_97" data-name="Group 97" clip-path="url(#clip-path-2)">
          <g id="Group_93" data-name="Group 93" transform="translate(-8.324 -8.324)" opacity="0.8">
            <circle id="Ellipse_32" data-name="Ellipse 32" cx="32.026" cy="32.026" r="32.026" fill="#becbfc"/>
          </g>
          <g id="Group_96" data-name="Group 96" transform="translate(4.793 5.784)">
            <g id="Group_94" data-name="Group 94" transform="translate(18.626 49.634)">
              <path id="Path_34" data-name="Path 34" d="M157.036,406.3l-.141-.027-.141.027Z" transform="translate(-156.754 -406.27)" fill="#4375fa"/>
            </g>
            <g id="Group_95" data-name="Group 95">
              <path id="Path_35" data-name="Path 35" d="M181.335,411.829c-.282-6.067-3.951-10.018-6.49-9.734s-8.466-.565-8.466-.565a6.984,6.984,0,0,1-.375-3.416c2.746-1.778,4.785-5.713,5.271-10.471a2.567,2.567,0,0,0,1.574-1.877c.377-1.246.095-2.432-.629-2.651a1,1,0,0,0-.821.148c.039-6.52-.178-11.5-8.679-11.5-8.034,0-8.63,4.915-8.667,11.368a.985.985,0,0,0-.738-.252c-.751.091-1.233,1.213-1.077,2.5s.889,2.267,1.64,2.176a.851.851,0,0,0,.27-.081c.437,4.643,2.352,8.525,4.965,10.416a7.213,7.213,0,0,1-.351,3.636s-5.926.847-8.466.565-6.208,3.668-6.49,9.734c-.268,5.763,17.034,9.234,18.764,9.566C164.3,421.063,181.6,417.593,181.335,411.829Z" transform="translate(-143.804 -371.761)" fill="#819fde"/>
            </g>
          </g>
        </g>
      </g>
      <g id="Group_104" data-name="Group 104" transform="translate(531.632 233.664)">
        <g id="Group_103" data-name="Group 103" clip-path="url(#clip-path-3)">
          <g id="Group_99" data-name="Group 99" transform="translate(-7.432 -7.432)" opacity="0.8">
            <circle id="Ellipse_34" data-name="Ellipse 34" cx="23.79" cy="23.79" r="23.79" transform="matrix(0.178, -0.984, 0.984, 0.178, 0, 46.823)" fill="#becbfc"/>
          </g>
          <g id="Group_102" data-name="Group 102" transform="translate(6.164 6.899)">
            <g id="Group_100" data-name="Group 100" transform="translate(13.836 36.871)">
              <path id="Path_36" data-name="Path 36" d="M420.679,217.938l-.1-.02-.1.02Z" transform="translate(-420.469 -217.918)" fill="#4375fa"/>
            </g>
            <g id="Group_101" data-name="Group 101">
              <path id="Path_37" data-name="Path 37" d="M438.729,222.047c-.21-4.508-2.934-7.442-4.821-7.232a37.664,37.664,0,0,1-6.288-.419,5.192,5.192,0,0,1-.279-2.539c2.039-1.32,3.554-4.243,3.915-7.778a1.9,1.9,0,0,0,1.169-1.394c.28-.926.07-1.808-.466-1.97a.754.754,0,0,0-.611.111c.029-4.843-.132-8.544-6.446-8.544-5.969,0-6.411,3.65-6.438,8.444a.737.737,0,0,0-.549-.187c-.557.068-.915.9-.8,1.86s.66,1.684,1.218,1.617a.6.6,0,0,0,.2-.059c.325,3.449,1.748,6.333,3.689,7.738a5.361,5.361,0,0,1-.262,2.7,37.65,37.65,0,0,1-6.288.419c-1.886-.21-4.611,2.724-4.82,7.232-.2,4.28,12.653,6.859,13.939,7.107C426.076,228.907,438.927,226.328,438.729,222.047Z" transform="translate(-410.849 -192.283)" fill="#819fde"/>
            </g>
          </g>
        </g>
      </g>
      <g id="Group_105" data-name="Group 105" transform="translate(73.74 393.377)">
        <path id="Path_38" data-name="Path 38" d="M103.107,305.977a7.449,7.449,0,1,1-7.449-7.449A7.449,7.449,0,0,1,103.107,305.977Z" transform="translate(-88.209 -298.528)" fill="#819fde"/>
      </g>
      <g id="Group_106" data-name="Group 106" transform="translate(551.164 322.271)">
        <path id="Path_39" data-name="Path 39" d="M435.042,256.54a7.449,7.449,0,1,1-7.449-7.449A7.45,7.45,0,0,1,435.042,256.54Z" transform="translate(-420.144 -249.091)" fill="#819fde"/>
      </g>
      <g id="Group_107" data-name="Group 107" transform="translate(375.183 69.766)">
        <path id="Path_40" data-name="Path 40" d="M306.074,81.087a4.651,4.651,0,1,1-.731-6.536A4.65,4.65,0,0,1,306.074,81.087Z" transform="translate(-297.791 -73.534)" fill="#819fde"/>
      </g>
      <g id="Group_108" data-name="Group 108" transform="translate(350.126 522.81)">
        <path id="Path_41" data-name="Path 41" d="M289.6,392.381a4.65,4.65,0,1,1-5.371-3.8A4.65,4.65,0,0,1,289.6,392.381Z" transform="translate(-280.37 -388.518)" fill="#819fde"/>
      </g>
      <g id="Group_109" data-name="Group 109" transform="translate(267.508 591.207)">
        <path id="Path_42" data-name="Path 42" d="M232.163,439.935a4.65,4.65,0,1,1-5.371-3.8A4.651,4.651,0,0,1,232.163,439.935Z" transform="translate(-222.929 -436.072)" fill="#819fde"/>
      </g>
      <g id="Group_110" data-name="Group 110" transform="translate(589.177 360.282)">
        <path id="Path_43" data-name="Path 43" d="M455.807,279.382a4.65,4.65,0,1,1-5.371-3.8A4.651,4.651,0,0,1,455.807,279.382Z" transform="translate(-446.573 -275.519)" fill="#819fde"/>
      </g>
      <g id="Group_111" data-name="Group 111" transform="translate(119.879 86.018)">
        <path id="Path_44" data-name="Path 44" d="M129.522,88.7a4.65,4.65,0,1,1-5.371-3.8A4.651,4.651,0,0,1,129.522,88.7Z" transform="translate(-120.288 -84.833)" fill="#819fde"/>
      </g>
    </g>
    <g id="Group_118" data-name="Group 118" transform="translate(51.087 282.287)">
      <g id="Group_117" data-name="Group 117" clip-path="url(#clip-path-4)">
        <g id="Group_113" data-name="Group 113" transform="translate(-4.043 -4.043)" opacity="0.8">
          <circle id="Ellipse_36" data-name="Ellipse 36" cx="15.555" cy="15.555" r="15.555" fill="#becbfc"/>
        </g>
        <g id="Group_116" data-name="Group 116" transform="translate(2.328 2.809)">
          <g id="Group_114" data-name="Group 114" transform="translate(9.047 24.109)">
            <path id="Path_45" data-name="Path 45" d="M54.822,222.619l-.068-.013-.069.013Z" transform="translate(-54.685 -222.606)" fill="#4375fa"/>
          </g>
          <g id="Group_115" data-name="Group 115">
            <path id="Path_46" data-name="Path 46" d="M66.624,225.306c-.137-2.947-1.919-4.866-3.151-4.728a24.665,24.665,0,0,1-4.112-.275,3.377,3.377,0,0,1-.183-1.66,6.862,6.862,0,0,0,2.56-5.084,1.245,1.245,0,0,0,.764-.912c.184-.606.047-1.182-.3-1.289a.49.49,0,0,0-.4.072c.019-3.166-.088-5.586-4.216-5.586-3.9,0-4.191,2.388-4.21,5.522a.472.472,0,0,0-.358-.121c-.365.043-.6.587-.524,1.215s.433,1.1.8,1.057a.385.385,0,0,0,.131-.04,7.066,7.066,0,0,0,2.412,5.06,3.5,3.5,0,0,1-.171,1.766,24.658,24.658,0,0,1-4.111.275c-1.234-.138-3.016,1.781-3.153,4.728-.129,2.8,8.273,4.485,9.115,4.647C58.351,229.79,66.755,228.1,66.624,225.306Z" transform="translate(-48.395 -205.844)" fill="#819fde"/>
          </g>
        </g>
      </g>
    </g>
    <path id="Path_47" data-name="Path 47" d="M518.278,307.112c0-111.181-90.13-201.312-201.312-201.312S115.653,195.931,115.653,307.112a200.49,200.49,0,0,0,45.78,127.818H472.5A200.481,200.481,0,0,0,518.278,307.112Z" transform="translate(34.5 35.403)" fill="#becbfc" opacity="0.8"/>
    <g id="Group_133" data-name="Group 133" transform="translate(184.025 278.684)">
      <g id="Group_120" data-name="Group 120" transform="translate(192.385)">
        <path id="Path_48" data-name="Path 48" d="M395.52,307.063c-11.655-28.47-24.917-33.8-24.917-33.8s.414-.557,1.083-1.553A29.1,29.1,0,0,1,384.7,283.254a.356.356,0,0,0,.616-.358,29.89,29.89,0,0,0-13.23-11.8c.285-.434.6-.928.941-1.474a49.149,49.149,0,0,1,11.843,4.247c.41.2.771-.413.36-.616a50.408,50.408,0,0,0-11.808-4.272c7.215-11.859,22.718-44.528-22.679-48.267,2.823-3.084,6.757-5.025,10.654-6.412.429-.152.245-.841-.188-.686-3.9,1.388-7.777,3.276-10.677,6.288a36.575,36.575,0,0,1,1.861-5.854c.171-.426-.518-.61-.686-.19a35.788,35.788,0,0,0-1.982,6.418c-.708-.666-2.326-2.139-4.64-3.98a36.878,36.878,0,0,0-4.144-5.1c-7.738-7.978-18.6-10.649-29.442-9.6a.362.362,0,0,0-.319.263,28.941,28.941,0,0,0-19.315,6.982c-7.6,6.35-8.683,16.086-6.744,25.447.116,1.486.385,2.927.541,3.883,1.139,7.01,4.2,13.595,7.935,19.624-4.641.784-13.017,3.583-11.273,13.55,2.385,13.644,13.611,30.842.308,32.631s-19.709,32.253,27.392,60.7,91.89,1.512,73.309-21.019C383.335,343.66,407.176,335.533,395.52,307.063ZM286.867,240.554a50.67,50.67,0,0,0,9.65,16.945,19.674,19.674,0,0,0-2.15.187A57.236,57.236,0,0,1,286.867,240.554Zm53.849-28.563c.821.867,1.621,1.8,2.38,2.776-6.56-4.92-16.985-11.33-28.123-12.654C324.583,201.9,333.906,204.8,340.715,211.991Z" transform="translate(-272.961 -201.386)" fill="#4375f1"/>
        <g id="Group_119" data-name="Group 119" clip-path="url(#clip-path-5)">
          <path id="Path_49" data-name="Path 49" d="M351.374,253.646s-5.138,2.615-6.288,4.965,1.224,17.064,1.224,17.064l29.9,23.728s8.067,61.695-11.865,78.3-93.49-58.372-93.49-58.372l20.881-26.576,19.457-6.17,3.323-14.236s-20.874-9.884-4.032-43.857h0l40.891,25.15" transform="translate(-273.885 -196.121)" fill="#507cc7" opacity="0.4" style="mix-blend-mode: multiply;isolation: isolate"/>
          <path id="Path_50" data-name="Path 50" d="M303.731,220.638l-10.441-1.886s3.8,5.7,14.236,3.322-3.8-1.437-3.8-1.437" transform="translate(-264.051 -193.774)" fill="#4375f1" opacity="0.5" style="mix-blend-mode: multiply;isolation: isolate"/>
        </g>
      </g>
      <g id="Group_122" data-name="Group 122" transform="translate(154.33 90.468)">
        <path id="Path_52" data-name="Path 52" d="M323.288,271.879l-4.272-7.594s-12.391,1.225-16.894,6.478-33.065,57.514-33.065,57.514-12.371,5.874-22.554,10.882c2.539,1.584,5.454,4.485,7.115,10.121,8.936-3.229,20.63-8.155,24.854-11.184,0,0,27.577-21.111,30.578-35.371S323.288,271.879,323.288,271.879Z" transform="translate(-246.503 -264.285)" fill="#e2b187"/>
        <g id="Group_121" data-name="Group 121" clip-path="url(#clip-path-6)">
          <path id="Path_53" data-name="Path 53" d="M282.189,318.449s-11.39-9.017,6.169-32.27c16.005-21.2,13.289,6.644,13.289,6.644l-11.689,25.459Z" transform="translate(-232.454 -258.178)" fill="#e2b187" opacity="0.31" style="mix-blend-mode: multiply;isolation: isolate"/>
        </g>
      </g>
      <path id="Path_55" data-name="Path 55" d="M263.675,316.342c-12.722,6.258-27.217,13.389-28.05,13.806-1.5.751-13.51-3-15.01-2.251s-9.756,5.254-12.759,6,7.505,2.252,12.008,0,6,2.252,9.756,3,6,1.5,8.256,0c0,0,17.317-4.8,32.914-10.441C269.129,320.827,266.214,317.926,263.675,316.342Z" transform="translate(-109.345 -151)" fill="#e2b187"/>
      <g id="Group_124" data-name="Group 124" transform="translate(226.097 50.813)">
        <path id="Path_56" data-name="Path 56" d="M309.158,257.729s2.252,8.254-7.505,18.012L296.4,285.5l11.258,12.759,11.258,3.753,24.015-27.769-10.507-6.754-3-30.771Z" transform="translate(-296.4 -236.714)" fill="#edba8f"/>
        <g id="Group_123" data-name="Group 123" clip-path="url(#clip-path-7)">
          <path id="Path_57" data-name="Path 57" d="M304.228,260.47s20.881-.949,21.356-13.763S301.855,255.249,304.228,260.47Z" transform="translate(-293.041 -234.101)" fill="#af703f" opacity="0.28" style="mix-blend-mode: multiply;isolation: isolate"/>
        </g>
      </g>
      <g id="Group_126" data-name="Group 126" transform="translate(202.671 81.584)">
        <path id="Path_59" data-name="Path 59" d="M312.59,261.85s4.457,12.768,26.973-3.742c0,0,14.032,7.486,17.875,9.834,8.542,5.221,10.357,4.348,12.608,12.6L350.07,346.667l6.754,26.268-72.075.121,6.4-29.2a23.894,23.894,0,0,0-7.406-19.44c-10.3-9.963,3.515-26.452,14.377-56.472C299.014,265.461,312.59,261.85,312.59,261.85Z" transform="translate(-280.112 -258.108)" fill="#dc466f"/>
        <g id="Group_125" data-name="Group 125" clip-path="url(#clip-path-8)">
          <path id="Path_60" data-name="Path 60" d="M351,282.1s-12.812,16.61-11.388,48.406c0,0-39.525,13.606-56.3,12.735s2.2,11.468,2.2,11.468,47.457,3.61,69.287-11.483S351,282.1,351,282.1" transform="translate(-281.746 -247.591)" fill="#a172ae" opacity="0.31" style="mix-blend-mode: multiply;isolation: isolate"/>
        </g>
      </g>
      <path id="Path_62" data-name="Path 62" d="M297.023,330.03l-18.581-7.9-7.751-5.821a2.466,2.466,0,0,0-1.709-.485l-8.943.813a1.956,1.956,0,0,0-1,.385c-1.565,1.188-6.641,5.107-5.368,5.107a14.248,14.248,0,0,0,6.756-2.252s6.754,0,7.505-.751a28.526,28.526,0,0,0,4.5,3.753c1.5.751.751,0,.751,0l-10.048,3.055a2.374,2.374,0,0,0-1.273.931c-1.264,1.835-4.723,6.806-5.94,8.023,0,0,3.753,1.5,6.754-3s11.258-4.5,12.008-3.753c0,0-10.507,6-13.51,12.008,0,0,1.42,3.689,3.753.749,4.523-5.7,10.462-7.473,12.759-8.254l-4.276,4.886a1.471,1.471,0,0,0,.15,2.084l4.126,3.537s.751-3-.751-4.5l3.753-3.753s4.142,8.253,16.331,3.376Z" transform="translate(-89.119 -151.233)" fill="#edba8f"/>
      <path id="Path_63" data-name="Path 63" d="M316.882,321.593c-16.02,3.344-34.016,6.1-34.016,6.1l.324,8.013a238.4,238.4,0,0,0,40.048-2.2A15.115,15.115,0,0,0,316.882,321.593Z" transform="translate(-76.235 -148.698)" fill="#edba8f"/>
      <path id="Path_64" data-name="Path 64" d="M355.357,269.061c-9.7-4.206-17.9,18.917-17.9,18.917-10.507,21.764-7.97,50.361-7.97,50.361-3.489,2.037-12.837,4.387-22.974,6.5a15.115,15.115,0,0,1,6.356,11.918c21.622-3.2,30.879-8.666,30.879-8.666C352.756,334.586,365.055,273.266,355.357,269.061Z" transform="translate(-65.869 -171.948)" fill="#edba8f"/>
      <g id="Group_128" data-name="Group 128" transform="translate(224.599 15.012)">
        <path id="Path_65" data-name="Path 65" d="M313.739,211.823s-20.881,15.662-18.131,39.755c1.257,11.01,3.745,14.455,8.165,17.668,5.22,3.8,22.617,1.433,27.159-7.331l2.4-7.111s4.257,3.813,8.551-1.867,3.377-14.7-2.809-10.454l3.84-11.377-3.761-9.982Z" transform="translate(-295.358 -211.823)" fill="#edba8f"/>
        <g id="Group_127" data-name="Group 127" clip-path="url(#clip-path-9)">
          <path id="Path_66" data-name="Path 66" d="M298.1,226.34s7.844,3.21,14.964-10.553c0,0,1.9,22.305,16.61,21.831l-4.272-3.8s1.691,15.662,11.524,9.966-20.066-35.592-20.066-35.592L296.9,215.312l1.2,11.027" transform="translate(-294.683 -213.414)" fill="#af703f" opacity="0.28" style="mix-blend-mode: multiply;isolation: isolate"/>
        </g>
      </g>
      <path id="Path_68" data-name="Path 68" d="M344.68,222.986l-15.186-7.593-21.356-5.22s-26.1,9.017-14.236,14.236c10.41,4.581,19.358-5.819,21.395-8.436-.21,3.226.078,8.3,3.059,12.646,2.559,3.722,6.6,6.234,12.029,7.5-.26,7.371,8.6,8.7,8.6,8.7l3.8-2.848,7.593-2.372Zm-25.93,5.368a17.694,17.694,0,0,1-2.869-7.948c2.313,8.792,14.563,14.92,14.563,14.92-.013.106-.016.207-.024.312C325.145,234.4,321.227,231.959,318.751,228.354Z" transform="translate(-72.753 -197.534)" fill="#4375f1"/>
      <path id="Path_69" data-name="Path 69" d="M318.366,208.419s5.694-2.586,11.39,8.8c0,0,7.118,16.61,0,31.8h-1.424S331.18,220.972,318.366,208.419Z" transform="translate(-60.675 -198.414)" fill="#43464a"/>
      <circle id="Ellipse_38" data-name="Ellipse 38" cx="6.644" cy="6.644" r="6.644" transform="translate(262.437 45.385)" fill="#c22373"/>
      <path id="Path_70" data-name="Path 70" d="M310.4,234.675c-.381,1.526-1.1,2.659-1.611,2.533s-.613-1.467-.232-2.993,1.1-2.659,1.609-2.533S310.779,233.149,310.4,234.675Z" transform="translate(-65.075 -188.111)" fill="#43464a"/>
      <path id="Path_71" data-name="Path 71" d="M301.461,232.893c-.128,1.568-.656,2.8-1.178,2.76s-.841-1.348-.713-2.915.656-2.8,1.178-2.76S301.59,231.325,301.461,232.893Z" transform="translate(-68.926 -188.854)" fill="#43464a"/>
      <path id="Path_72" data-name="Path 72" d="M299.889,246.762a16.822,16.822,0,0,0,15.66-4.385s0,8.144-11.275,9.4C304.274,251.773,302.395,251.773,299.889,246.762Z" transform="translate(-68.773 -183.419)" fill="#fff"/>
      <path id="Path_73" data-name="Path 73" d="M299.011,227.566a3.07,3.07,0,0,1,.623-1.2,2.941,2.941,0,0,1,1.151-.833,2.429,2.429,0,0,1,1.427-.23,2.612,2.612,0,0,1,.67.25,2.275,2.275,0,0,1,.555.466l-.033.091a3,3,0,0,1-.677.1c-.21.036-.408.032-.6.049a4.484,4.484,0,0,1-.557,0,2.018,2.018,0,0,0-.558.012,2.775,2.775,0,0,0-1.053.452,3.171,3.171,0,0,0-.859.88Z" transform="translate(-69.158 -190.919)" fill="#4375f1"/>
      <path id="Path_74" data-name="Path 74" d="M313.664,227.566a3.07,3.07,0,0,0-.623-1.2,2.951,2.951,0,0,0-1.151-.833,2.429,2.429,0,0,0-1.427-.23,2.613,2.613,0,0,0-.67.25,2.273,2.273,0,0,0-.555.466l.033.091a2.972,2.972,0,0,0,.677.1c.21.036.408.032.6.049a4.458,4.458,0,0,0,.555,0,2.027,2.027,0,0,1,.56.012,2.768,2.768,0,0,1,1.051.452,3.156,3.156,0,0,1,.86.88Z" transform="translate(-64.676 -190.919)" fill="#4375f1"/>
      <path id="Path_75" data-name="Path 75" d="M304.194,244.792s-6.49-2.5-4.992-3.5c1.187-.791,3.942-5.033,5.034-7.5a.319.319,0,0,1,.611.1C305.054,236.452,305.278,241.538,304.194,244.792Z" transform="translate(-69.173 -187.266)" fill="#e79d90"/>
      <g id="Group_130" data-name="Group 130" transform="translate(237.759 49.181)">
        <circle id="Ellipse_39" data-name="Ellipse 39" cx="2.847" cy="2.847" r="2.847" transform="translate(28.474)" fill="#43464a"/>
        <g id="Group_129" data-name="Group 129" transform="translate(3.797 4.271)">
          <path id="Path_76" data-name="Path 76" d="M328.606,250.888H307.148v-1.1h20.89c.86-1.657,5.317-10.267,5.753-11.24l.882.492c-.493,1.1-5.7,11.145-5.924,11.573Z" transform="translate(-307.148 -238.549)" fill="#43464a"/>
        </g>
        <ellipse id="Ellipse_40" data-name="Ellipse 40" cx="2.847" cy="1.186" rx="2.847" ry="1.186" transform="translate(0 14.712)" fill="#43464a"/>
      </g>
      <path id="Path_77" data-name="Path 77" d="M470.452,341.787H143.475a4.271,4.271,0,0,1-4.272-4.27h0a4.272,4.272,0,0,1,4.272-4.272H470.452a4.272,4.272,0,0,1,4.272,4.272h0A4.271,4.271,0,0,1,470.452,341.787Z" transform="translate(-139.203 -143.591)" fill="#cbcfd6"/>
      <g id="Group_132" data-name="Group 132" transform="translate(25.478 76.059)">
        <path id="Path_78" data-name="Path 78" d="M156.923,263.948l2.783,81.283a9.361,9.361,0,0,0,9.356,9.041H285.953a9.361,9.361,0,0,0,9.355-9.681l-2.783-81.284a9.361,9.361,0,0,0-9.356-9.04H166.277A9.361,9.361,0,0,0,156.923,263.948Z" transform="translate(-156.917 -254.267)" fill="#838bc0"/>
        <g id="Group_131" data-name="Group 131" clip-path="url(#clip-path-10)">
          <path id="Path_79" data-name="Path 79" d="M226.317,299.611s-9.017,35.119,0,45.085-49.83-3.8-49.83-3.8,8.069-28.949,30.373-41.288h0l10.441,6.645,9.017-6.645" transform="translate(-148.34 -236.796)" fill="#838bc0" opacity="0.61" style="mix-blend-mode: multiply;isolation: isolate"/>
        </g>
      </g>
      <path id="Path_81" data-name="Path 81" d="M205.253,297.94H224.71s-29.423,47.457-3.085,50.779H181.05S172.983,329.737,205.253,297.94Z" transform="translate(-121.254 -159.066)" fill="#838bc0"/>
      <path id="Path_82" data-name="Path 82" d="M205.273,275.754a8.553,8.553,0,0,1,.4-2.589c-.132-.006-.266-.01-.4-.01a10.022,10.022,0,1,0,9.972,11.013,8.533,8.533,0,0,1-9.972-8.414Z" transform="translate(-114.637 -169.929)" fill="#fff"/>
    </g>
    <g id="Group_140" data-name="Group 140" transform="translate(82.536 124.898)">
      <circle id="Ellipse_41" data-name="Ellipse 41" cx="98.754" cy="98.754" r="98.754" transform="translate(0 197.415) rotate(-88.237)" fill="#819fde"/>
      <g id="Group_139" data-name="Group 139" clip-path="url(#clip-path-11)">
        <circle id="Ellipse_42" data-name="Ellipse 42" cx="120.31" cy="120.31" r="120.31" transform="translate(-68.399 101.746) rotate(-45)" fill="#cdbdf9"/>
        <g id="Group_138" data-name="Group 138" transform="translate(42.515 25.303)">
          <path id="Path_83" data-name="Path 83" d="M147.124,171.026s-25.764,0-34.783,4.509-13.526,16.1-11.594,23.833-8.374,27.053,2.577,37.359c9.832,9.255,17.589,8.121,20.935,6.861a10.254,10.254,0,0,0,.965-.419c2.576-1.289,0,34.138,0,34.138s65.056,3.865,68.921,0,5.153-85.025-3.865-94.042-34.138-12.239-34.138-12.239Z" transform="translate(-98.2 -86.209)" fill="#6daaa3"/>
          <g id="Group_135" data-name="Group 135" transform="translate(45.704 54.22)">
            <path id="Path_84" data-name="Path 84" d="M130.943,157.484l-.967,22.866,21.14,14.019a1.379,1.379,0,0,0,2.106-.9l3.485-18.592L136.1,149.753Z" transform="translate(-129.976 -149.753)" fill="#e7b59d"/>
            <g id="Group_134" data-name="Group 134" clip-path="url(#clip-path-12)">
              <path id="Path_85" data-name="Path 85" d="M129.92,169.687s3.222,2.576,5.8,0c0,0,14.815,25.12,27.7,20.612s-13.527-25.121-13.527-25.121l-13.493-10.2-7.763,5.691Z" transform="translate(-130.565 -147.463)" fill="#e7b59d" opacity="0.45" style="mix-blend-mode: multiply;isolation: isolate"/>
            </g>
          </g>
          <path id="Path_87" data-name="Path 87" d="M138.664,165.633c10.305-.644,11.594-17.392,11.594-19.324s16.1-7.087,19.968-5.153c3.678,1.838,4.653,13.644,4.83,14.492,5.663-3.427,10.626-15.657,8.052-22.866-3.22-9.018-7.085-5.8-9.661-3.865s-2.577-7.085-16.1-14.815,1.932,9.017-14.17,7.729-17.392,14.815-17.392,14.815c-8.374,0-14.17,7.085-7.729,14.172s1.289,7.729,0,14.17c-.672,3.36,5.84,4.791,12.226,5.392A11.111,11.111,0,0,1,138.664,165.633Z" transform="translate(-90.705 -112.056)" fill="#2e5271"/>
          <path id="Path_88" data-name="Path 88" d="M146.685,166.556c11.85,5.152,22.869-.818,26.807-3.416-2.861-4.539-5.327-9.09-5.55-13.33a32.987,32.987,0,0,0-.82-5.77c.053-.032.106-.066.161-.1-.178-.85-2.1-9.684-5.782-11.522-3.865-1.933-19.968,3.22-19.968,5.153,0,1.535-.82,12.421-6.327,17.152A22.013,22.013,0,0,0,146.685,166.556Z" transform="translate(-81.98 -103.318)" fill="#e7b59d"/>
          <path id="Path_89" data-name="Path 89" d="M177.653,156.213c-3.938,2.6-14.957,8.568-26.807,3.416A22.013,22.013,0,0,1,139.367,147.8a8.748,8.748,0,0,1-5.267,2.172,11.111,11.111,0,0,0-8.387,4.748,111.113,111.113,0,0,0,11.607.4c3.22,36.716,41.868,34.14,48.31,24.477C189.838,173.284,183.047,164.769,177.653,156.213Z" transform="translate(-86.14 -96.391)" fill="#2e5271"/>
          <rect id="Rectangle_60" data-name="Rectangle 60" width="29.63" height="15.214" transform="translate(56.869 66.421) rotate(-176.82)" fill="#61002f"/>
          <path id="Path_90" data-name="Path 90" d="M116.317,175.374s0-19.968,3.22-22.545,10.951-12.237,14.816-9.661,1.932,3.865,4.509,5.153,1.287,3.22,3.22,4.508,4.509,6.442,3.22,6.442h-5.8s-9.017,16.748-12.881,16.1l-.644,2.576h-9.663Z" transform="translate(-90.259 -98.609)" fill="#e7b59d"/>
          <path id="Path_91" data-name="Path 91" d="M129.814,168.761s1.289,63.769-4.509,67.633-21.257-.644-18.035-13.526,14.815-59.9,14.815-59.9Z" transform="translate(-94.416 -89.742)" fill="#e7b59d"/>
          <path id="Path_92" data-name="Path 92" d="M143.411,158.934s11.269,3.38,16.417,2.238a.527.527,0,0,1,.61.695,29.292,29.292,0,0,0-1.568,5.441C158.87,168.6,147.276,166.663,143.411,158.934Z" transform="translate(-78.383 -91.509)" fill="#effdff"/>
          <path id="Path_93" data-name="Path 93" d="M152.273,145.5s15.046,9.047,10.967,12.943S156,161.722,156,161.722,150.743,147.8,152.273,145.5Z" transform="translate(-74.621 -97.398)" fill="#e19f9d"/>
          <path id="Path_94" data-name="Path 94" d="M143.414,148.848a3.657,3.657,0,0,1,.647-2.33,3.084,3.084,0,0,1,2.3-1.3,4.2,4.2,0,0,1,2.447.676,8.736,8.736,0,0,1,.939.746,8.351,8.351,0,0,1,.755.919,9.607,9.607,0,0,1-1.1-.385c-.345-.141-.7-.227-1.03-.364a5.561,5.561,0,0,0-1.922-.308,2.8,2.8,0,0,0-1.635.685A8.46,8.46,0,0,0,143.414,148.848Z" transform="translate(-78.387 -97.526)" fill="#9a6253"/>
          <path id="Path_95" data-name="Path 95" d="M159.679,143.965a2.943,2.943,0,0,0-1.277-1.48,2.491,2.491,0,0,0-2.127-.158,3.4,3.4,0,0,0-1.555,1.338,6.961,6.961,0,0,0-.429.87,6.393,6.393,0,0,0-.236.931,7.843,7.843,0,0,0,.669-.659c.2-.221.436-.41.627-.621a4.528,4.528,0,0,1,1.3-.887,2.268,2.268,0,0,1,1.431-.063A6.849,6.849,0,0,1,159.679,143.965Z" transform="translate(-73.718 -98.862)" fill="#9a6253"/>
          <g id="Group_136" data-name="Group 136" transform="translate(59.737 39.144)">
            <path id="Path_96" data-name="Path 96" d="M141.659,146.46a7.035,7.035,0,0,1,1.22-2.941c1.651-2.324,4.338-2.616,6.969-2.086,1.22.246,1.484-1.668.269-1.914-3.113-.627-6.341-.142-8.454,2.412a8.965,8.965,0,0,0-1.917,4.26.967.967,0,0,0,1.914.269Z" transform="translate(-139.733 -139.271)" fill="#2e5271"/>
          </g>
          <g id="Group_137" data-name="Group 137" transform="translate(76.932 35.738)">
            <path id="Path_97" data-name="Path 97" d="M152.935,139.476a5.747,5.747,0,0,1,2.429-.941c2.306-.338,4,1.086,5.169,2.94.544.86,1.825-.065,1.283-.922-1.388-2.195-3.5-3.83-6.2-3.635a7.324,7.324,0,0,0-3.6,1.274.79.79,0,0,0,.922,1.283Z" transform="translate(-151.688 -136.903)" fill="#2e5271"/>
          </g>
        </g>
      </g>
    </g>
    <g id="Group_143" data-name="Group 143" transform="translate(400.899 127.785)">
      <g id="Group_142" data-name="Group 142" transform="translate(0)">
        <path id="Path_98" data-name="Path 98" d="M295.575,96.471H472.243a5.588,5.588,0,0,1,5.589,5.588V146.63a5.59,5.59,0,0,1-2.46,4.63L447.119,170.35a1.88,1.88,0,0,1-2.852-2.1l5.65-18.648H295.575a5.588,5.588,0,0,1-5.588-5.588V102.059A5.588,5.588,0,0,1,295.575,96.471Z" transform="translate(-289.987 -96.471)" fill="#9f71ac"/>
        <g id="Group_141" data-name="Group 141" clip-path="url(#clip-path-13)">
          <path id="Path_99" data-name="Path 99" d="M394.831,138.612l6.261-5.218h18.263l-23.481,13.045Z" transform="translate(-244.033 -80.287)" fill="#606060" opacity="0.22" style="mix-blend-mode: multiply;isolation: isolate"/>
        </g>
      </g>
      <path id="Path_101" data-name="Path 101" d="M305.551,107.811H453.233a2.371,2.371,0,0,0,2.372-2.372h0a2.371,2.371,0,0,0-2.372-2.372H305.551a2.371,2.371,0,0,0-2.372,2.372h0A2.371,2.371,0,0,0,305.551,107.811Z" transform="translate(-284.205 -93.58)" fill="#fff"/>
      <path id="Path_102" data-name="Path 102" d="M305.551,116.166H453.233a2.372,2.372,0,0,0,2.372-2.372h0a2.371,2.371,0,0,0-2.372-2.372H305.551a2.371,2.371,0,0,0-2.372,2.372h0A2.372,2.372,0,0,0,305.551,116.166Z" transform="translate(-284.205 -89.918)" fill="#fff"/>
      <rect id="Rectangle_61" data-name="Rectangle 61" width="76.213" height="4.744" rx="1.166" transform="translate(171.401 38.264) rotate(180)" fill="#fff"/>
    </g>
    <g id="Group_144" data-name="Group 144" transform="translate(331.111 568.612)">
      <path id="Path_103" data-name="Path 103" d="M243.9,402.962H280.68a2.431,2.431,0,0,1,2.431,2.431v19.385a2.433,2.433,0,0,1-1.07,2.015l-12.289,8.3a.819.819,0,0,1-1.241-.916l2.458-8.111H243.9a2.43,2.43,0,0,1-2.429-2.431V405.393A2.429,2.429,0,0,1,243.9,402.962Z" transform="translate(-241.466 -402.962)" fill="#819fde"/>
    </g>
    <g id="Group_145" data-name="Group 145" transform="translate(593.862 208.547)">
      <path id="Path_104" data-name="Path 104" d="M425.63,152.622h22.429a1.481,1.481,0,0,1,1.481,1.481v11.821a1.483,1.483,0,0,1-.653,1.228l-7.492,5.063a.5.5,0,0,1-.757-.558l1.5-4.946H425.63a1.482,1.482,0,0,1-1.483-1.481V154.1A1.482,1.482,0,0,1,425.63,152.622Z" transform="translate(-424.147 -152.622)" fill="#819fde"/>
    </g>
    <g id="Group_148" data-name="Group 148" transform="translate(330.226 190.019)">
      <g id="Group_147" data-name="Group 147" transform="translate(0)">
        <path id="Path_105" data-name="Path 105" d="M439.143,139.74H246.931a6.079,6.079,0,0,0-6.08,6.08v48.492a6.079,6.079,0,0,0,2.675,5.037l30.739,20.771a2.046,2.046,0,0,0,3.1-2.29l-6.147-20.289H439.143a6.079,6.079,0,0,0,6.08-6.08V145.82A6.079,6.079,0,0,0,439.143,139.74Z" transform="translate(-240.851 -139.74)" fill="#e6b851"/>
        <g id="Group_146" data-name="Group 146" clip-path="url(#clip-path-14)">
          <path id="Path_106" data-name="Path 106" d="M277.006,185.589l-6.812-5.677H250.324L275.87,194.1Z" transform="translate(-236.699 -122.133)" fill="#e6b851" opacity="0.22" style="mix-blend-mode: multiply;isolation: isolate"/>
        </g>
      </g>
      <path id="Path_108" data-name="Path 108" d="M416.548,152.077H255.87a2.58,2.58,0,0,1-2.58-2.58h0a2.58,2.58,0,0,1,2.58-2.58H416.548a2.581,2.581,0,0,1,2.58,2.58h0A2.581,2.581,0,0,1,416.548,152.077Z" transform="translate(-235.399 -136.595)" fill="#fff"/>
      <path id="Path_109" data-name="Path 109" d="M416.548,161.167H255.87a2.58,2.58,0,0,1-2.58-2.58h0a2.58,2.58,0,0,1,2.58-2.58H416.548a2.581,2.581,0,0,1,2.58,2.58h0A2.581,2.581,0,0,1,416.548,161.167Z" transform="translate(-235.399 -132.611)" fill="#fff"/>
      <rect id="Rectangle_62" data-name="Rectangle 62" width="82.919" height="5.161" rx="1.269" transform="translate(17.891 36.47)" fill="#fff"/>
    </g>
    <g id="Group_161" data-name="Group 161" transform="translate(411.275 413.583)">
      <g id="Group_160" data-name="Group 160" clip-path="url(#clip-path-15)">
        <circle id="Ellipse_44" data-name="Ellipse 44" cx="101.328" cy="101.328" r="101.328" transform="translate(-27.418 115.882) rotate(-45)" fill="#7cbfb9"/>
        <g id="Group_159" data-name="Group 159" transform="translate(78.561 44.959)">
          <g id="Group_150" data-name="Group 150" transform="translate(15.622 65.07)">
            <path id="Path_110" data-name="Path 110" d="M391.331,386.307c-6.218,14.267-17.192,25.971-25.606,14.632-6.271-8.453-1.364-19.956,1.542-25.267a110.665,110.665,0,0,1,17.691-4H393.3s4.945,0,11.12.394A29.853,29.853,0,0,0,391.331,386.307Z" transform="translate(-362.683 -371.674)" fill="#e7b59d"/>
            <g id="Group_149" data-name="Group 149" clip-path="url(#clip-path-16)">
              <path id="Path_111" data-name="Path 111" d="M373.387,371.674c0,.732-.367,12.072-.367,12.072l-6.95-11.7Z" transform="translate(-361.198 -371.674)" fill="#e7b59d" opacity="0.45" style="mix-blend-mode: multiply;isolation: isolate"/>
            </g>
          </g>
          <path id="Path_113" data-name="Path 113" d="M358.126,382.881c3.176-3.177,8.51-5.575,13.9-7.328-2.905,5.31-7.813,16.814-1.542,25.267,8.414,11.34,19.388-.365,25.606-14.632a29.853,29.853,0,0,1,13.091-14.239c7.383.472,16.523,1.507,21.068,3.778,8.345,4.173,12.518,14.9,10.73,22.055s7.748,25.035-2.385,34.573c-9.1,8.565-16.277,7.515-19.373,6.349a9.6,9.6,0,0,1-.895-.387c-2.383-1.192,0,31.591,0,31.591s-60.2,3.577-63.78,0S349.781,391.226,358.126,382.881Z" transform="translate(-351.822 -306.484)" fill="#f9ca45"/>
          <g id="Group_152" data-name="Group 152" transform="translate(2.28)">
            <path id="Path_114" data-name="Path 114" d="M393.934,330.779s-5.852-8.413-20.119-1.828-32.191,38.775-9.877,67.308c0,0,4.755-6.951,21.949-8.779S393.934,330.779,393.934,330.779Z" transform="translate(-353.407 -326.434)" fill="#a072ae"/>
            <g id="Group_151" data-name="Group 151" clip-path="url(#clip-path-17)">
              <path id="Path_115" data-name="Path 115" d="M388.412,327.867l-15.73,6.219,10.974-7.682Z" transform="translate(-344.959 -326.447)" fill="#a072ae" opacity="0.52" style="mix-blend-mode: multiply;isolation: isolate"/>
              <path id="Path_116" data-name="Path 116" d="M360.609,346.356s-14.5,36.782,11.109,37.512-11.109-37.512-11.109-37.512" transform="translate(-352.043 -317.702)" fill="#a072ae" opacity="0.52" style="mix-blend-mode: multiply;isolation: isolate"/>
            </g>
          </g>
          <g id="Group_154" data-name="Group 154" transform="translate(24.119 36.762)">
            <path id="Path_118" data-name="Path 118" d="M392.434,359.146l.895,21.16-19.564,12.975a1.278,1.278,0,0,1-1.949-.837l-3.225-17.2,19.073-23.247Z" transform="translate(-368.591 -351.993)" fill="#e7b59d"/>
            <g id="Group_153" data-name="Group 153" clip-path="url(#clip-path-18)">
              <path id="Path_119" data-name="Path 119" d="M396.664,370.439s-3.53-3.042-5.913-5.427c0,0-6.219,17.926-24.875,15.731-12.543-1.476,12.31-14.477,12.31-14.477l12.486-9.44,7.184,5.267Z" transform="translate(-371.331 -349.874)" fill="#e7b59d" opacity="0.45" style="mix-blend-mode: multiply;isolation: isolate"/>
            </g>
          </g>
          <g id="Group_156" data-name="Group 156" transform="translate(7.975 13.121)">
            <path id="Path_121" data-name="Path 121" d="M357.448,364.826c.459-6.441,4.137-18.616,4.155-18.213.164-.785,1.946-8.961,5.35-10.662,3.577-1.788,18.478,2.98,18.478,4.769,0,1.421.758,11.495,5.855,15.872a8.089,8.089,0,0,0,4.874,2.009,10.29,10.29,0,0,1,7.761,4.394,102.786,102.786,0,0,1-10.741.375c-4.64,26.33-21.911,23.393-26.954,22.672C361.105,385.31,356.711,375.145,357.448,364.826Z" transform="translate(-357.367 -335.556)" fill="#e7b59d"/>
            <g id="Group_155" data-name="Group 155" clip-path="url(#clip-path-19)">
              <path id="Path_122" data-name="Path 122" d="M368.613,334.542c1.1,0,1.276,23.142,22.77,26.935s-7.771-22.18-7.771-22.18Z" transform="translate(-352.437 -336)" fill="#e7b59d" opacity="0.45" style="mix-blend-mode: multiply;isolation: isolate"/>
            </g>
          </g>
          <path id="Path_124" data-name="Path 124" d="M377.274,362.593s-9.09,2.727-13.242,1.805a.425.425,0,0,0-.492.56,23.613,23.613,0,0,1,1.264,4.39C364.8,370.387,374.156,368.828,377.274,362.593Z" transform="translate(-346.697 -310.585)" fill="#effdff"/>
          <path id="Path_125" data-name="Path 125" d="M374.823,354.457a2.941,2.941,0,0,0-.523-1.88,2.487,2.487,0,0,0-1.853-1.047,3.378,3.378,0,0,0-1.973.545,7.1,7.1,0,0,0-.758.6,6.764,6.764,0,0,0-.608.741,7.962,7.962,0,0,0,.885-.311c.279-.114.567-.184.831-.293a4.449,4.449,0,0,1,1.549-.249,2.257,2.257,0,0,1,1.319.552A6.845,6.845,0,0,1,374.823,354.457Z" transform="translate(-344.246 -315.438)" fill="#9a6253"/>
          <path id="Path_126" data-name="Path 126" d="M361.341,350.519a2.387,2.387,0,0,1,1.03-1.194,2.014,2.014,0,0,1,1.716-.128,2.74,2.74,0,0,1,1.256,1.079,5.656,5.656,0,0,1,.345.7,5.126,5.126,0,0,1,.19.751,6.288,6.288,0,0,1-.539-.531c-.164-.178-.351-.331-.506-.5a3.633,3.633,0,0,0-1.047-.715,1.819,1.819,0,0,0-1.155-.05A5.454,5.454,0,0,0,361.341,350.519Z" transform="translate(-347.649 -316.515)" fill="#9a6253"/>
          <path id="Path_127" data-name="Path 127" d="M372.849,336.451s6.219,21.583,23.961,23.411-14.449-26.338-14.449-26.338H364.436l-5.487,13.536S369.557,343.768,372.849,336.451Z" transform="translate(-348.698 -323.326)" fill="#a072ae"/>
          <path id="Path_128" data-name="Path 128" d="M368.591,335.853c.4,0,17.591-9.51,24.907-7.315s23.777,25.241,21.582,48.287-33.288,19.754-33.288,19.754,16.1-20.851,1.463-44.629l-10.973-10.242Z" transform="translate(-344.472 -325.655)" fill="#a072ae"/>
          <rect id="Rectangle_63" data-name="Rectangle 63" width="27.42" height="14.079" transform="translate(38.896 49.964) rotate(-54.781)" fill="#61002f"/>
          <path id="Path_129" data-name="Path 129" d="M405.093,374.192s0-16-2.582-18.068-8.776-9.809-11.873-7.744-1.549,3.1-3.613,4.129-1.033,2.582-2.582,3.614-3.613,5.162-2.582,5.162h4.647s7.226,13.422,10.324,12.906l.516,2.065h7.744Z" transform="translate(-338.777 -316.967)" fill="#e7b59d"/>
          <path id="Path_130" data-name="Path 130" d="M391.758,364.044s-.237,64.627,5.126,68.2,19.672-.6,16.69-12.518S399.865,364.3,399.865,364.3Z" transform="translate(-334.318 -309.949)" fill="#e7b59d"/>
          <path id="Path_131" data-name="Path 131" d="M366.819,361.679l-3.292-1.828a45.348,45.348,0,0,0,3.5-5.268.306.306,0,0,1,.577.135A23.272,23.272,0,0,1,366.819,361.679Z" transform="translate(-346.691 -314.168)" fill="#e2a29d"/>
          <g id="Group_157" data-name="Group 157" transform="translate(27.347 30.106)">
            <path id="Path_132" data-name="Path 132" d="M376.349,353.075a7.806,7.806,0,0,0-5.32-5.171.275.275,0,0,1,.147-.529,8.364,8.364,0,0,1,5.7,5.555c.1.338-.426.482-.529.145Z" transform="translate(-370.835 -347.365)" fill="#a072ae"/>
          </g>
          <g id="Group_158" data-name="Group 158" transform="translate(12.824 27.147)">
            <path id="Path_133" data-name="Path 133" d="M367.044,345.814a6.7,6.7,0,0,0-5.887,2.419.235.235,0,0,1-.367-.295,7.172,7.172,0,0,1,6.32-2.59c.3.033.234.5-.066.466Z" transform="translate(-360.738 -345.308)" fill="#a072ae"/>
          </g>
          <path id="Path_134" data-name="Path 134" d="M367.98,333.524l-.01.782c0,.283,0,.565.013.847.016.564.056,1.125.109,1.683a27.535,27.535,0,0,0,.531,3.314,26.788,26.788,0,0,0,2.257,6.264,26.471,26.471,0,0,0,3.728,5.447,29.461,29.461,0,0,0,4.9,4.344,29.27,29.27,0,0,1-4.544-4.636,25.227,25.227,0,0,1-4.989-11.673,26.224,26.224,0,0,1-.282-3.16c-.012-.526-.013-1.054.009-1.578q.015-.393.043-.785l.069-.849Z" transform="translate(-344.744 -323.326)" fill="#a072ae"/>
        </g>
      </g>
    </g>
  </g>
</svg>
