<svg xmlns="http://www.w3.org/2000/svg" width="134.902" height="155.195" viewBox="0 0 134.902 155.195">
  <g id="Group_11" data-name="Group 11" transform="translate(-517.606 -342)">
    <g id="Group_5" data-name="Group 5" transform="translate(181 184)" opacity="0.78">
      <path id="Path_5" data-name="Path 5" d="M272.434,348.768a42.83,42.83,0,0,1-4.43,19.04c-.33.68-.68,1.34-1.05,2h-75.17c-.37-.66-.72-1.32-1.05-2a43.071,43.071,0,1,1,81.7-19.04Z" transform="translate(179 -77.808)" fill="#2f2e41"/>
      <circle id="Ellipse_2" data-name="Ellipse 2" cx="14.719" cy="14.719" r="14.719" transform="translate(394.741 245.333)" fill="#fff"/>
      <circle id="Ellipse_3" data-name="Ellipse 3" cx="4.906" cy="4.906" r="4.906" transform="translate(404.554 255.145)" fill="#3f3d56"/>
      <path id="Path_6" data-name="Path 6" d="M187.593,308.712c-3.477-15.574,7.639-31.31,24.829-35.149s33.944,5.675,37.422,21.249-7.915,21.318-25.1,25.156S191.07,324.286,187.593,308.712Z" transform="translate(179 -77.808)" fill="#6c63ff"/>
      <path id="Path_7" data-name="Path 7" d="M286.606,235.808h-124a5,5,0,0,0-5,5v124a5,5,0,0,0,5,5h124a5,5,0,0,0,5-5v-124A5,5,0,0,0,286.606,235.808Zm3,129a3.009,3.009,0,0,1-3,3h-124a3.009,3.009,0,0,1-3-3v-124a3.009,3.009,0,0,1,3-3h124a3.009,3.009,0,0,1,3,3Z" transform="translate(179 -77.808)" fill="#3f3d56"/>
    </g>
    <ellipse id="Ellipse_7" data-name="Ellipse 7" cx="6.594" cy="21.006" rx="6.594" ry="21.006" transform="translate(611.57 470.733) rotate(-50.959)" fill="#2f2e41"/>
    <ellipse id="Ellipse_8" data-name="Ellipse 8" cx="6.594" cy="21.006" rx="6.594" ry="21.006" transform="translate(522.57 433.733) rotate(-50.959)" fill="#2f2e41"/>
  </g>
</svg>
